<?xml version="1.0" encoding="utf-8"?>
<!-- Generator: Adobe Illustrator 21.0.0, SVG Export Plug-In . SVG Version: 6.00 Build 0)  -->
<svg version="1.1" xmlns="http://www.w3.org/2000/svg" xmlns:xlink="http://www.w3.org/1999/xlink" x="0px" y="0px"
	 viewBox="0 0 2000 1200" style="enable-background:new 0 0 2000 1200;" xml:space="preserve">
<style type="text/css">
	.st0{fill:url(#SVGID_1_);}
	.st1{opacity:0.6;}
	.st2{fill:url(#SVGID_2_);stroke:url(#SVGID_3_);stroke-miterlimit:10;}
	.st3{fill:#0A0A0A;}
	.st4{fill:url(#SVGID_4_);}
	.st5{fill:url(#SVGID_5_);}
	.st6{fill:url(#SVGID_6_);}
	.st7{fill:url(#SVGID_7_);}
	.st8{fill:url(#SVGID_8_);}
	.st9{fill:url(#SVGID_9_);}
	.st10{fill:url(#SVGID_10_);}
	.st11{fill:url(#SVGID_11_);}
	.st12{fill:url(#SVGID_12_);}
	.st13{fill:url(#SVGID_13_);}
	.st14{fill:url(#SVGID_14_);}
	.st15{fill:url(#SVGID_15_);}
	.st16{fill:url(#SVGID_16_);}
	.st17{fill:url(#SVGID_17_);}
	.st18{fill:url(#SVGID_18_);}
	.st19{fill:url(#SVGID_19_);}
	.st20{fill:url(#SVGID_20_);}
	.st21{fill:url(#SVGID_21_);}
	.st22{fill:url(#SVGID_22_);}
	.st23{fill:url(#SVGID_23_);}
	.st24{fill:#141414;}
	.st25{fill:url(#SVGID_24_);}
	.st26{fill:url(#SVGID_25_);}
	.st27{fill:url(#SVGID_26_);}
	.st28{fill:url(#SVGID_27_);}
	.st29{fill:url(#SVGID_28_);}
	.st30{fill:url(#SVGID_29_);}
	.st31{opacity:0.3;}
	.st32{fill:none;stroke:#FFFFFF;stroke-miterlimit:10;}
	.st33{fill:none;stroke:#FFFFFF;stroke-width:0.3;stroke-miterlimit:10;}
	.st34{fill:none;stroke:#FFFFFF;stroke-width:0.6;stroke-miterlimit:10;}
	.st35{fill:none;stroke:#FFFFFF;stroke-width:1.5;stroke-miterlimit:10;}
</style>
<g id="Layer_3_12_">
</g>
<g id="Layer_2_1_">
	<g>
		
			<linearGradient id="SVGID_1_" gradientUnits="userSpaceOnUse" x1="1445.385" y1="1200" x2="1445.385" y2="3.637979e-12" gradientTransform="matrix(1 0 0 -1 0 1200)">
			<stop  offset="0" style="stop-color:#1A8BEA"/>
			<stop  offset="1" style="stop-color:#219653"/>
		</linearGradient>
		<path class="st0" d="M1454.3,861.7c149.2,0,270.6-121.4,270.6-270.6c0-134.1-98.1-245.7-226.3-266.9c-0.4-24.2-20-43.6-44.3-43.6
			c-24.2,0-43.9,19.5-44.3,43.6c-121.2,20-215.4,120.8-225.4,245.1c-10.6,1.7-18.7,10.8-18.7,21.8s8.1,20.1,18.7,21.8
			C1195.8,752,1312.4,861.7,1454.3,861.7z M1193.5,569.7c9.8-119.8,100.5-217,217.2-236.6c3.8,20.6,21.8,36.2,43.5,36.2
			c21.7,0,39.7-15.6,43.5-36.2c123.7,20.8,218.2,128.6,218.2,258.1c0,144.3-117.4,261.7-261.7,261.7c-137.1,0-249.8-106-260.8-240.3
			c9.6-2.4,16.8-11.1,16.8-21.4C1210.3,580.7,1203.1,572.1,1193.5,569.7z"/>
		
			<linearGradient id="SVGID_2_" gradientUnits="userSpaceOnUse" x1="1474.2212" y1="1200" x2="1474.2212" y2="3.637979e-12" gradientTransform="matrix(1 0 0 -1 0 1200)">
			<stop  offset="0" style="stop-color:#1A8BEA"/>
			<stop  offset="1" style="stop-color:#219653"/>
		</linearGradient>
		<path style="fill:url(#SVGID_2_);" d="M1454.3,773c85,0,156.4-58.7,176.2-137.7c0.4,0,0.8,0.1,1.2,0.1c24.5,0,44.4-19.9,44.4-44.4
			s-19.9-44.4-44.4-44.4c-0.4,0-0.8,0.1-1.2,0.1c-19.8-78.9-91.2-137.7-176.2-137.7c-100.3,0-181.9,81.6-181.9,181.9
			S1354,773,1454.3,773z M1454.3,418.1c80.5,0,148.1,55.3,167.4,129.9c-19.6,4.6-34.3,22.1-34.3,43.1s14.6,38.5,34.3,43.1
			c-19.2,74.6-86.9,129.9-167.4,129.9c-95.4,0-173-77.6-173-173C1281.2,495.7,1358.9,418.1,1454.3,418.1z"/>
		
			<linearGradient id="SVGID_3_" gradientUnits="userSpaceOnUse" x1="1454.2576" y1="1200" x2="1454.2576" y2="3.637979e-12" gradientTransform="matrix(1 0 0 -1 0 1200)">
			<stop  offset="0" style="stop-color:#1A8BEA"/>
			<stop  offset="1" style="stop-color:#219653"/>
		</linearGradient>
		<circle style="fill:url(#SVGID_3_);" cx="1454.3" cy="591.1" r="88.7"/>
		
			<linearGradient id="SVGID_4_" gradientUnits="userSpaceOnUse" x1="1454.2577" y1="1200" x2="1454.2577" y2="3.637979e-12" gradientTransform="matrix(1 0 0 -1 0 1200)">
			<stop  offset="0" style="stop-color:#1A8BEA"/>
			<stop  offset="1" style="stop-color:#219653"/>
		</linearGradient>
		<path class="st4" d="M1432.4,949.7c1.8,10.5,10.8,18.5,21.8,18.5c11,0,20-8,21.8-18.5c188-11.3,337.5-167.8,337.5-358.6
			c0-198.1-161.2-359.3-359.4-359.3c-198.1,0-359.3,161.2-359.3,359.3C1094.9,781.9,1244.4,938.4,1432.4,949.7z M1454.3,240.7
			c193.2,0,350.5,157.2,350.5,350.5c0,186-145.7,338.6-329,349.7c-2.3-9.8-11-17-21.5-17s-19.2,7.3-21.5,17
			c-183.3-11.2-329-163.7-329-349.7C1103.8,397.9,1261,240.7,1454.3,240.7z"/>
		
			<linearGradient id="SVGID_5_" gradientUnits="userSpaceOnUse" x1="1000" y1="0.4884" x2="1000" y2="-0.4882" gradientTransform="matrix(1 0 0 -1 0 1200)">
			<stop  offset="0" style="stop-color:#1A8BEA"/>
			<stop  offset="1" style="stop-color:#219653"/>
		</linearGradient>
		<rect x="0" y="1200" class="st5" width="2000" height="0"/>
		<path class="st3" d="M1432.7,940.9c2.3-9.8,11-17,21.5-17s19.2,7.3,21.5,17c183.3-11.2,329-163.7,329-349.7
			c0-193.2-157.2-350.5-350.5-350.5s-350.5,157.2-350.5,350.5C1103.8,777.1,1249.5,929.7,1432.7,940.9z M1165.9,591.1
			c0-11.1,8.1-20.1,18.7-21.8c10-124.3,104.2-225.1,225.4-245.1c0.4-24.1,20-43.6,44.3-43.6c24.2,0,43.9,19.5,44.3,43.6
			c128.2,21.2,226.3,132.8,226.3,266.9c0,149.2-121.4,270.6-270.6,270.6c-141.9,0-258.5-109.7-269.7-248.8
			C1174,611.3,1165.9,602.2,1165.9,591.1z"/>
		<path class="st3" d="M1193.5,612.6c11,134.3,123.7,240.3,260.8,240.3c144.3,0,261.7-117.4,261.7-261.7
			c0-129.5-94.5-237.2-218.2-258.1c-3.8,20.6-21.8,36.2-43.5,36.2c-21.7,0-39.7-15.6-43.5-36.2c-116.8,19.6-207.5,116.8-217.2,236.6
			c9.6,2.4,16.8,11.1,16.8,21.4C1210.3,601.5,1203.1,610.2,1193.5,612.6z M1454.2,409.2c85,0,156.4,58.7,176.2,137.7
			c0.4,0,0.8-0.1,1.2-0.1c24.5,0,44.4,19.9,44.4,44.4s-19.9,44.4-44.4,44.4c-0.4,0-0.8-0.1-1.2-0.1
			c-19.8,78.9-91.2,137.7-176.2,137.7c-100.3,0-181.9-81.6-181.9-181.9S1354,409.2,1454.2,409.2z"/>
		<path class="st3" d="M1454.3,764.1c80.5,0,148.1-55.3,167.4-129.9c-19.6-4.6-34.3-22.1-34.3-43.1s14.6-38.5,34.3-43.1
			c-19.2-74.6-86.9-129.9-167.4-129.9c-95.4,0-173,77.6-173,173C1281.2,686.5,1358.9,764.1,1454.3,764.1z M1454.3,502.4
			c49,0,88.7,39.7,88.7,88.7s-39.7,88.7-88.7,88.7s-88.7-39.7-88.7-88.7S1405.3,502.4,1454.3,502.4z"/>
		<path class="st3" d="M0,1200h2000V0H0V1200z M1454.2,231.8c198.2,0,359.4,161.2,359.4,359.3c0,190.8-149.5,347.3-337.5,358.6
			c-1.8,10.5-10.8,18.5-21.8,18.5c-11,0-20-8-21.8-18.5c-188-11.3-337.5-167.8-337.5-358.6C1094.9,393,1256.1,231.8,1454.2,231.8z"
			/>
	</g>
</g>
<g id="Layer_1">
</g>
</svg>
