<?xml version="1.0" encoding="utf-8"?>
<!-- Generator: Adobe Illustrator 21.0.0, SVG Export Plug-In . SVG Version: 6.00 Build 0)  -->
<svg version="1.1" xmlns="http://www.w3.org/2000/svg" xmlns:xlink="http://www.w3.org/1999/xlink" x="0px" y="0px"
	 viewBox="0 0 2000 1200" style="enable-background:new 0 0 2000 1200;" xml:space="preserve">
<style type="text/css">
	.st0{fill:url(#SVGID_1_);}
	.st1{opacity:0.6;}
	.st2{fill:url(#SVGID_2_);stroke:url(#SVGID_3_);stroke-miterlimit:10;}
	.st3{fill:#0A0A0A;}
	.st4{fill:url(#SVGID_4_);}
	.st5{fill:url(#SVGID_5_);}
	.st6{fill:url(#SVGID_6_);}
	.st7{fill:url(#SVGID_7_);}
	.st8{fill:url(#SVGID_8_);}
	.st9{fill:url(#SVGID_9_);}
	.st10{fill:url(#SVGID_10_);}
	.st11{fill:url(#SVGID_11_);}
	.st12{fill:url(#SVGID_12_);}
	.st13{fill:url(#SVGID_13_);}
	.st14{fill:url(#SVGID_14_);}
	.st15{fill:url(#SVGID_15_);}
	.st16{fill:url(#SVGID_16_);}
	.st17{fill:url(#SVGID_17_);}
	.st18{fill:url(#SVGID_18_);}
	.st19{fill:url(#SVGID_19_);}
	.st20{fill:url(#SVGID_20_);}
	.st21{fill:url(#SVGID_21_);}
	.st22{fill:url(#SVGID_22_);}
	.st23{fill:url(#SVGID_23_);}
	.st24{fill:#141414;}
	.st25{fill:url(#SVGID_24_);}
	.st26{fill:url(#SVGID_25_);}
	.st27{fill:url(#SVGID_26_);}
	.st28{fill:url(#SVGID_27_);}
	.st29{fill:url(#SVGID_28_);}
	.st30{fill:url(#SVGID_29_);}
	.st31{opacity:0.3;}
	.st32{fill:none;stroke:#FFFFFF;stroke-miterlimit:10;}
	.st33{fill:none;stroke:#FFFFFF;stroke-width:0.3;stroke-miterlimit:10;}
	.st34{fill:none;stroke:#FFFFFF;stroke-width:0.6;stroke-miterlimit:10;}
	.st35{fill:none;stroke:#FFFFFF;stroke-width:1.5;stroke-miterlimit:10;}
</style>
<g id="Layer_3_12_">
</g>
<g id="Layer_2_1_">
	<g>
		
			<linearGradient id="SVGID_1_" gradientUnits="userSpaceOnUse" x1="1451.9104" y1="-2564.8447" x2="1451.9104" y2="-1364.8448" gradientTransform="matrix(1 0 0 -1 0 -1364.8448)">
			<stop  offset="0" style="stop-color:#F2C94C"/>
			<stop  offset="1" style="stop-color:#16C261"/>
		</linearGradient>
		<path class="st0" d="M1187.3,554.9c13.4,0,26.5-3.6,38-10.3l51.2,61.7c-24.8,28.2-18,72.2,13.9,91.8l-27.9,76.2
			c-87.2-21.9-104.7,119.4-14.8,119.4c16,0,31.6-6.4,42.8-17.7c90.5,51.5,203.2,52.7,294.9,3.3c51.6,55.5,138.2-16.6,93.1-77.3
			c37.7-46.9,61-104.7,66.2-164.7c69.2-16.4,57.3-119.6-14-119.6c-28.7,0-53.8,20.5-59.4,48.6h-60c-6.6-44.7-49-75.5-93.6-68.3
			l-46.2-127.8c13-7.6,22.8-20,27.3-34.3c28.8,6.1,56.6,16.7,82,31.4c-31.6,88.6,117.7,114.3,117.7,20.3c0-55-68.1-81.5-105.3-40.9
			c-28.5-16.4-59.7-28.3-92-34.8c-7.2-72-113.3-72-120.6,0c-64.8,13-124.4,47.5-168.2,96.9c-8.1-2.9-16.7-4.3-25.2-4.3
			C1088.1,404.4,1088.1,554.9,1187.3,554.9z M1638,351.1c48.1,0,48.2,73.1,0,73.1S1589.9,351.1,1638,351.1z M1322,610
			c48,0,48.2,73,0,73.1C1273.8,683,1273.8,610,1322,610z M1247.7,869.7c-48.2,0-48.2-73.1,0-73.1S1295.9,869.7,1247.7,869.7z
			 M1573,858.9c-83.7,44.6-186.2,43.5-269-2.9c10.2-25.1,1.9-54.7-19.6-71.1l28.6-78.5c20.5,3,41.5-4.9,55-20.6l207.1,126.4
			C1568.2,826.8,1567.5,843.8,1573,858.9z M1379.8,664.8c2.7-8.4,3.5-17.4,2.3-26.2l73.8-29.1c15.2,36.7,55.3,57.2,94,48l47,129.8
			c-2.6,1.7-5.1,3.6-7.4,5.6L1379.8,664.8z M1629.8,874.7c-48.2,0-48.1-73.1,0-73.1S1678,874.6,1629.8,874.7z M1730.7,541.8
			c48.2,0,48.2,73.1,0,73.1S1682.6,541.8,1730.7,541.8z M1611.3,590.4h60c4.9,24.2,24.8,43.5,49.2,47.7
			c-5.2,53.8-26.2,105.6-60,147.8c-12.3-7.3-27.2-10-41.3-7.5l-47.1-130C1593.1,636,1607.8,614.5,1611.3,590.4z M1531,521.1
			c75.4,0,75.4,114.4,0,114.4C1455.4,635.5,1455.8,521.1,1531,521.1z M1494.9,505.5c-31,15.4-47,46.2-44.8,80.3l-75.9,29.9
			c-5-8.5-12-15.7-20.5-20.9l79.2-216.7c5.2,0.7,10.6,0.7,15.8,0L1494.9,505.5z M1441,281.5c48.2,0,48.2,73,0,73.1
			C1392.8,354.6,1392.8,281.5,1441,281.5z M1383.1,335.9c4.4,14.3,14.2,26.6,27.1,34.3l-79,216.4c-12-1.9-24.5,0-35.5,5.2
			l-51.9-62.4c28.2-32.2,23.8-82-9.7-108.6C1273.5,378,1326.1,347.9,1383.1,335.9z M1187.2,428.7c67.5,0,67.5,102.3,0,102.3
			C1119.7,531,1119.8,428.7,1187.2,428.7z"/>
		<path class="st3" d="M1243.8,529.5l51.9,62.4c11-5.2,23.5-7.1,35.5-5.2l79-216.4c-12.9-7.6-22.7-20-27.1-34.3
			c-57,12-109.6,42.1-149,85C1267.6,447.5,1272,497.3,1243.8,529.5z"/>
		<path class="st3" d="M1247.7,796.7c-48.2,0-48.2,73.1,0,73.1S1295.9,796.7,1247.7,796.7z"/>
		<path class="st3" d="M1187.2,531c67.5,0,67.5-102.3,0-102.3C1119.8,428.7,1119.7,531,1187.2,531z"/>
		<path class="st3" d="M1432.9,378.1l-79.2,216.7c8.4,5.2,15.4,12.4,20.5,20.9l75.9-29.9c-2.2-34,13.8-64.9,44.8-80.3l-46.2-127.4
			C1443.4,378.8,1438.1,378.8,1432.9,378.1z"/>
		<path class="st3" d="M1531,635.5c75.4,0,75.4-114.4,0-114.4C1455.8,521.1,1455.4,635.5,1531,635.5z"/>
		<path class="st3" d="M1638,424.2c48.2,0,48.1-73.1,0-73.1C1589.9,351.1,1589.9,424.2,1638,424.2z"/>
		<path class="st3" d="M1441,354.6c48.2-0.1,48.2-73.1,0-73.1C1392.8,281.5,1392.8,354.6,1441,354.6z"/>
		<path class="st3" d="M1322,683c48.2-0.1,48-73.1,0-73.1C1273.8,610,1273.8,683,1322,683z"/>
		<path class="st3" d="M1368,685.8c-13.5,15.7-34.6,23.6-55,20.6l-28.6,78.5c21.5,16.4,29.8,46,19.6,71.1
			c82.7,46.4,185.2,47.5,269,2.9c-5.5-15.1-4.7-32.1,2.2-46.6L1368,685.8z"/>
		<path class="st3" d="M1730.7,614.9c48.2,0,48.2-73.1,0-73.1S1682.6,614.9,1730.7,614.9z"/>
		<rect x="0" y="0" class="st3" width="2000" height="0"/>
		<path class="st3" d="M0,1200h2000V0H0V1200z M1187.3,404.4c8.6,0,17.1,1.5,25.2,4.3c43.8-49.3,103.3-83.9,168.2-96.9
			c7.3-72,113.4-72,120.6,0c32.3,6.5,63.5,18.4,92,34.8c37.2-40.6,105.3-14.1,105.3,40.9c0,94-149.3,68.3-117.7-20.3
			c-25.5-14.7-53.3-25.3-82-31.4c-4.5,14.4-14.4,26.8-27.3,34.3l46.2,127.8c44.6-7.2,87.1,23.6,93.6,68.3h60
			c5.6-28.2,30.7-48.6,59.4-48.6c71.4,0,83.3,103.1,14,119.6c-5.2,60-28.5,117.8-66.2,164.7c45.2,60.7-41.4,132.8-93.1,77.3
			c-91.7,49.4-204.4,48.2-294.9-3.3c-11.3,11.3-26.9,17.7-42.8,17.7c-89.8,0-72.4-141.3,14.8-119.4l27.9-76.2
			c-31.9-19.5-38.7-63.6-13.9-91.8l-51.2-61.7c-11.5,6.7-24.6,10.3-38,10.3C1088.1,554.9,1088.1,404.4,1187.3,404.4z"/>
		<path class="st3" d="M1619.3,778.4c14.1-2.5,28.9,0.2,41.3,7.5c33.7-42.2,54.7-94,60-147.8c-24.4-4.2-44.3-23.5-49.2-47.7h-60
			c-3.6,24.1-18.2,45.6-39.1,58L1619.3,778.4z"/>
		<path class="st3" d="M1629.8,801.6c-48.1,0-48.2,73.1,0,73.1C1678,874.6,1677.8,801.6,1629.8,801.6z"/>
		<path class="st3" d="M1549.9,657.4c-38.7,9.2-78.8-11.3-94-48l-73.8,29.1c1.2,8.8,0.4,17.8-2.3,26.2l209.7,128.1
			c2.3-2.1,4.8-3.9,7.4-5.6L1549.9,657.4z"/>
	</g>
</g>
<g id="Layer_1">
</g>
</svg>
