<?xml version="1.0" encoding="utf-8"?>
<!-- Generator: Adobe Illustrator 21.0.0, SVG Export Plug-In . SVG Version: 6.00 Build 0)  -->
<svg version="1.1" xmlns="http://www.w3.org/2000/svg" xmlns:xlink="http://www.w3.org/1999/xlink" x="0px" y="0px"
	 viewBox="0 0 2000 1200" style="enable-background:new 0 0 2000 1200;" xml:space="preserve">
<style type="text/css">
	.st0{fill:url(#SVGID_1_);}
	.st1{opacity:0.6;}
	.st2{fill:url(#SVGID_2_);stroke:url(#SVGID_3_);stroke-miterlimit:10;}
	.st3{fill:#0A0A0A;}
	.st4{fill:url(#SVGID_4_);}
	.st5{fill:url(#SVGID_5_);}
	.st6{fill:url(#SVGID_6_);}
	.st7{fill:url(#SVGID_7_);}
	.st8{fill:url(#SVGID_8_);}
	.st9{fill:url(#SVGID_9_);}
	.st10{fill:url(#SVGID_10_);}
	.st11{fill:url(#SVGID_11_);}
	.st12{fill:url(#SVGID_12_);}
	.st13{fill:url(#SVGID_13_);}
	.st14{fill:url(#SVGID_14_);}
	.st15{fill:url(#SVGID_15_);}
	.st16{fill:url(#SVGID_16_);}
	.st17{fill:url(#SVGID_17_);}
	.st18{fill:url(#SVGID_18_);}
	.st19{fill:url(#SVGID_19_);}
	.st20{fill:url(#SVGID_20_);}
	.st21{fill:url(#SVGID_21_);}
	.st22{fill:url(#SVGID_22_);}
	.st23{fill:url(#SVGID_23_);}
	.st24{fill:#141414;}
	.st25{fill:url(#SVGID_24_);}
	.st26{fill:url(#SVGID_25_);}
	.st27{fill:url(#SVGID_26_);}
	.st28{fill:url(#SVGID_27_);}
	.st29{fill:url(#SVGID_28_);}
	.st30{fill:url(#SVGID_29_);}
	.st31{opacity:0.3;}
	.st32{fill:none;stroke:#FFFFFF;stroke-miterlimit:10;}
	.st33{fill:none;stroke:#FFFFFF;stroke-width:0.3;stroke-miterlimit:10;}
	.st34{fill:none;stroke:#FFFFFF;stroke-width:0.6;stroke-miterlimit:10;}
	.st35{fill:none;stroke:#FFFFFF;stroke-width:1.5;stroke-miterlimit:10;}
</style>
<g id="Layer_3_12_">
</g>
<g id="Layer_2_1_">
</g>
<g id="Layer_1">
	<g>
		
			<linearGradient id="SVGID_1_" gradientUnits="userSpaceOnUse" x1="1838.8856" y1="-3959.5276" x2="1838.8856" y2="-5159.5273" gradientTransform="matrix(1 0 0 -1 0 -3959.5276)">
			<stop  offset="0" style="stop-color:#EB5757"/>
			<stop  offset="1" style="stop-color:#9B51E0"/>
		</linearGradient>
		<path class="st0" d="M1840.3,619c-3.2,6.6-7.2,13.7-12,21.1c-1.1,1.6-3,3.6-4.5,4.4c-0.3,0.1-0.5,0.3-0.8,0.4c0,0,0,0,0,0
			c1.5-0.8,3-1.6,3.8-2c1.9-2,3.7-4,4.8-5.5c5.5-7.9,8.3-15.2,11.6-21.9c3.2-6.6,6.1-12.1,9.4-16.8c0.7-0.9,1.3-1.8,1.9-2.6
			c-1.6,1.7-3.2,3.8-4.9,6.2C1846.5,606.9,1843.6,612.3,1840.3,619z"/>
		
			<linearGradient id="SVGID_2_" gradientUnits="userSpaceOnUse" x1="1821.142" y1="-3959.5276" x2="1821.142" y2="-5159.5273" gradientTransform="matrix(1 0 0 -1 0 -3959.5276)">
			<stop  offset="0" style="stop-color:#EB5757"/>
			<stop  offset="1" style="stop-color:#9B51E0"/>
		</linearGradient>
		<path style="fill:url(#SVGID_2_);" d="M1820.5,645.4l-0.8,0.4c0,0,0,0-0.6,0.3c0.3,0.2,0.7,0.3,1,0.4l0.8-0.4
			c0.8-0.4,0.8-0.4,0.8-0.4c0.5-0.3,1-0.5,1.5-0.8C1822,644.5,1820.5,645.4,1820.5,645.4z"/>
		
			<linearGradient id="SVGID_3_" gradientUnits="userSpaceOnUse" x1="1415.8866" y1="-3959.5276" x2="1415.8866" y2="-5159.5273" gradientTransform="matrix(1 0 0 -1 0 -3959.5276)">
			<stop  offset="0" style="stop-color:#EB5757"/>
			<stop  offset="1" style="stop-color:#9B51E0"/>
		</linearGradient>
		<path style="fill:url(#SVGID_3_);" d="M1816.2,642.8c-1.2-2.3-2.5-4.5-3.7-6.8c-4.9-9.1-8.7-19.7-12.9-31.1
			c-4.2-11.4-8.8-23.5-13.5-35.6c-2.5-6.4-5-12.9-8.7-19.7c-1.6-3-3.7-6.8-5.3-9.8c-0.8-1.5-2.8-3.4-3.6-4.9c-0.4-0.8-2-1.9-3.1-2.2
			c-1.2-0.3-2-1.9-3.9-1.8c-6.6-1.3-10.7,1.9-14,4.7c-3.4,2.8-6.3,6.4-8.5,9.5c-5.2,6.7-8.4,13.3-13.1,20.8c-4,7-8.4,13.3-14.4,18.5
			c-2.6,2.4-5.6,4-8.3,4.5c-0.4-0.8-1.6-3-2.5-4.5c-2.9-7.2-4.8-16-5.8-25.1c-1.8-8.8-2.9-17.9-4-27.1
			c-4.7-37.5-8.7-77.3-15.1-119.7c-1.9-10.7-3.8-21.4-5.7-32.1c-3.1-11-4.9-21.7-10.3-33.4c-1.6-3-2.9-5.3-4.5-8.3
			c-2.4-2.6-4.4-6.4-8.3-8.2l-1.6-1.1c-0.4-0.8-1.2-0.3-2.3-0.7c-1.2-0.3-1.2-0.3-2.3-0.7c-1.2-0.3-1.2-0.3-1.2-0.3l-1.2-0.3
			c-2.7,0.5-2.7,0.5-3.8,0.1c-1.9,0.1-3.4,0.9-4.5,2.5c-2.6,2.4-3.7,4-4.8,5.5s-2.2,3.1-2.1,5.1c-2.5,6.2-4.2,12-5.5,18.6
			c-1.7,5.8-2.3,12-3.3,17.4c-3.1,23.1-4.6,47.4-6.1,71.6c-1.5,24.2-1.8,48.8-2.9,73.8c-1,50.3-2,102.6-2.9,154.8
			c-0.3,26.5-1.3,53.4-2.3,80.3c-0.3,13.8-1,26.9-2.1,41.1c-0.5,8.1-1.4,15.4-2.3,22.7c-1.4-8-3.2-16.8-3.9-25.2
			c-3.6-28.3-6.1-56.2-9-84.9c-5-57.8-8.5-116.4-13.5-176.1c-2.5-29.9-5.1-59.7-8-90.3c-1.3-14.9-3.7-30.2-5.4-45.9
			c-1-7.3-2.4-15.3-3.8-23.3c-1.4-8-2.8-16-5-23.6c-1.3-4.2-2.6-8.4-5-12.9c-0.8-1.5-1.2-2.3-2-3.8s-2.4-2.6-4.4-4.5
			c-1.6-1.1-2-1.9-3.6-3c-0.4-0.8-7-2.1-7-2.1c0.8-0.4-5.8,0.2-6.5,0.6c-2.7,0.5-4.2,1.3-5.3,2.9c-2.6,2.4-4.5,4.4-5.6,5.9
			c-0.3,1.2-1.1,1.6-1.4,2.7s-1.1,1.6-0.7,2.3c-1.4,2.7-2.1,5.1-2.8,7.4c-1.4,4.7-2,8.9-3,12.4c-2.9,16.2-4.3,31.6-5.7,47
			c-2.8,30.8-3.3,62.3-4.2,93c-1.8,61.5-3.2,123.7-3.8,185.6c-0.9,30.7-1.4,62.2-2.7,92.2c-0.7,13.1-1.4,26.2-2.6,38.5
			c-0.4-0.8-0.1-1.9-0.5-2.7c-2.4-15.3-4.4-29.8-6.9-45.1c-3.7-30.2-7.4-60.4-10.3-91c-2.9-30.6-6.6-60.8-9.9-90.3
			c-3.7-30.2-7.4-60.4-13-90.6c-1.4-8-3.2-14.9-5.4-22.5c-1.3-4.2-2.2-7.6-4.6-12.1c-1.2-2.3-2.5-4.5-4.1-7.5
			c-0.8-1.5-2.8-3.4-6.7-5.2c-1.6-1.1-7-2.1-5.8-1.7c-3.8,0.1-4.6,0.5-6.5,0.6c-3.4,0.9-5.3,2.9-7.5,4.1c-1.9,2-2.2,3.1-3.7,4
			c-1.4,2.7-3.3,4.7-4,7c-1.8,3.9-3.2,8.6-4.2,12c-2.4,8.1-3.3,15.5-5,23.2c-5.1,30.1-8,59-10.9,87.9c-2.9,28.9-5,57.4-7.9,86.3
			c-1.2,10.4-1.6,20.4-2.8,30.8c-2-12.6-4.7-24.8-6.6-37.4c-4.7-26.7-8.7-53.8-13-79.8c-4.3-26-9-52.7-14.9-77.8
			c-1.4-6.1-3.1-12.9-4.9-19.8c-1.8-6.9-3.9-12.5-6.8-19.7c-0.8-1.5-1.6-3-2.9-5.3c-1.2-2.3-2-3.8-5.2-6c-1.6-1.1-3.1-2.2-4.7-3.3
			c-1.2-0.3-2.7-1.4-4.7-1.4c0.8-0.4-1.9,0.1-3.8,0.1s-2.7,0.5-3.4,0.9c-0.8,0.4-2.3,1.2-3,1.6c-0.8,0.4-1.5,0.8-1.9,2
			c-0.8,0.4-1.1,1.6-1.1,1.6c-3.3,4.7-4.3,8.2-5.8,10.9c-1,3.5-2.1,7-2.4,10.1c-2.6,13.1-4.9,25.1-6.1,37.4
			c-1.1,12.3-2.3,24.6-3.4,37c-2.3,24.6-3.4,47.7-5.3,71.2c-1.9,23.5-3.5,45.8-5.4,67.4c-0.8,11.2-2.7,22-3.9,32.4
			c-1,5.4-1.9,10.8-3.3,15.5c-0.3,1.2-0.7,2.3-1,3.5c-0.8-1.5-2-3.8-3.3-6c-2.5-4.5-3.7-8.7-5.4-13.6c-3.4-9.9-5.6-19.4-7.9-28.9
			c-4.5-19-8.9-38.1-13-56.4c-4.1-18.3-8.1-36.6-12.5-53.7c-2.6-8.4-4.4-17.1-8.2-25.8c-1.2-2.3-2-3.8-3.7-6.8
			c-0.8-1.5-1.2-2.3-2.8-3.4c-0.4-0.8-0.4-0.8-1.6-1.1c-0.4-0.8-2.3-0.7-2.3-0.7c-0.8,0.4,0,0-1.9,0.1c-0.8,0.4-0.8,0.4-1.9,0.1
			c-4.2,1.3-6,3.3-7.9,5.3c-1.9,2-3,3.6-3.6,5.9c-4.3,8.2-7.2,15.6-10,23c-2.8,7.4-4.9,14.4-7.3,22.5c-4.9,14.4-8.3,27.9-12.8,41.1
			c-2.5,6.2-5,12.4-7.1,17.5c-0.3,1.2-1.4,2.7-2.2,3.1c-0.8,0.4-0.8,0.4-1.1,1.6c0,0,0,0-1.2-0.3l-1.2-0.3c-1.2-0.3-2-1.9-3.1-2.2
			c-4.7-3.3-8.3-8.2-12.3-11.9c-3.2-4.1-7.6-8.6-10.8-12.7c-6.4-8.2-12.4-15.7-19.9-22.4c-2-1.9-3.6-3-5.9-3.6l-1.6-1.1
			c-1.2-0.3-1.2-0.3-2.3-0.7l-0.8,0.4c0,0,0,0-0.8,0.4l-1.9,0.1c-3.8,0.1-7.7,0.3-11.5,0.4c-28.8,1-44.9,1.9-44.9,1.9l-0.3,3.1
			c0,0,15.3-0.5,44.5-0.7c3.8-0.1,7.7-0.3,11.5-0.4l1.2,0.3c0,0,0.8-0.4,1.2,0.3c0,0,0.4,0.8,1.2,0.3l1.2,0.3
			c1.6,1.1,3.1,2.2,4.7,3.3c5.9,5.6,12.4,13.8,18.8,22c3.2,4.1,6.4,8.2,10,13.1c3.6,4.9,7.6,8.6,11.9,13c1.6,1.1,3.1,2.2,4.3,2.5
			c1.2,0.3,1.6,1.1,2.7,1.4l1.2,0.3l1.2,0.3c0,0,0,0,1.2,0.3l0.8-0.4c0,0,0.8-0.4,1.5-0.8c0.8-0.4,0.8-0.4,0.8-0.4l0.8-0.4
			c0.8-0.4,1.9-2,2.6-2.4c1.1-1.6,2.2-3.1,3.3-4.7c3.6-5.9,6.1-12.1,8.6-18.3c5-12.4,9.1-26.4,14-40.8c2.1-7,4.9-14.4,7.7-21.8
			c2.8-7.4,5.7-14.8,9.3-20.7c1.1-1.6,2.2-3.1,2.5-4.3c0.8-0.4,0.8-0.4,1.1-1.6c0,0,0,0,0.4,0.8c0.8,1.5,1.6,3,2.5,4.5
			c2.9,7.2,5.5,15.6,7.3,24.3c4.4,17.1,8.1,34.7,11.4,53.4c4.1,18.3,7.8,37.7,12.7,57.6c2.2,9.5,4.9,19.8,7.5,30.1
			c1.7,4.9,3.4,9.9,5.5,15.6c1.2,2.3,2.1,5.7,4.1,7.5c0.8,1.5,1.6,3,3.2,4.1c0.8,1.5,2.8,3.4,5.5,4.8c1.2,0.3,1.2,0.3,2.3,0.7
			c1.2,0.3,1.9-0.1,3.1,0.3c3.8-0.1,1.9-0.1,2.7-0.5c0,0,2.3-1.2,3-1.6c3.4-2.8,3.7-4,5.6-5.9c2.2-3.1,2.5-6.2,3.9-9
			c1.7-5.8,2.7-11.2,3.7-16.6c1.9-10.8,3.5-22.4,4.7-32.8c2.7-22,4.6-45.5,7-68.2c1.9-23.5,3.8-47,6.5-70.9
			c1.1-12.3,2.7-23.9,3.8-36.2c1.5-11.6,3.4-24.3,6.1-35.5c0.7-2.3,1.4-4.7,2.1-7c1.7,4.9,3.4,9.9,5.1,14.8
			c1.4,6.1,3.5,11.8,4.8,17.9c5.4,24.4,9.7,50.4,14,76.3c4.3,26,8.3,53.1,12.3,80.2c2.4,13.4,4,27.1,6.7,41.2
			c1,7.3,2.8,14.1,3.8,21.4c0.9,3.4,1.8,6.9,2.6,10.3c0.1,1.9,0.9,3.4,2.1,5.7c0.8,1.5,1.3,4.2,2.5,6.4c0.8,1.5,1.2,2.3,2.5,4.5
			c0.8,1.5,1.2,2.3,4,3.7c0.1,1.9,10.8,1.9,10.4,1.2c6.4-2.5,6-3.3,7.1-4.8c1.1-1.6,1.9-2,2.2-3.1c1.1-1.6,1.4-2.7,1.8-3.9
			c1.4-4.7,2.4-8.1,3-12.4c1.7-7.7,2.6-15.1,3.9-21.6c1.8-14.6,3.3-28.1,5.1-42.8c2.9-28.9,5.4-56.6,7.9-86.3
			c2.9-28.9,5.8-57.8,11-86c1.4-4.7,1.6-9.7,3-14.3c1.3,4.2,1.8,8.8,2.7,12.2c4.8,28.6,8.5,58.8,11.8,88.3
			c2.5,29.9,6.2,60.1,9.1,90.7c2.9,30.6,6.6,60.8,10,92.2c1.7,15.7,4.1,31,6.5,46.2c1.4,8,2.8,16,5,23.6c1.3,4.2,2.2,7.6,3.5,11.8
			c1.2,2.3,1.3,4.2,2.5,6.4c1.2,2.3,2.5,4.5,4.1,7.5c0.8,1.5,2.8,3.4,4.8,5.2c1.6,1.1,3.1,2.2,5.5,2.9c2.3,0.7,3.5,1,8.1,0.5
			c-1.5,0.8,6.1-1.4,7.2-2.9c2.3-1.2,2.6-2.4,3.7-4c1.9-2,2.5-4.3,2.9-5.5c2.9-5.5,3.5-9.7,4.1-14c1.3-8.5,2.9-16.2,3.4-24.3
			c2.2-15.8,2.4-31.6,3.8-47c1.7-31.2,2.6-61.9,3-93.4c1.4-62.2,2-124.1,3.8-185.6c0.9-30.7,1.8-61.5,4.3-91.1
			c0.4-10,2-19.6,3.2-30.1c0.4,0.8,0.1,1.9,0.5,2.7c1,7.3,2,14.5,3,21.8c2,14.5,3.7,30.2,5.7,44.7c3.3,29.5,5.8,59.3,8.3,89.2
			c5.1,59.7,9.7,118.7,14.7,176.5c2.9,28.7,5.7,57.4,9.8,86.4c2,14.5,4,29,8,43.5c0.9,3.4,2.2,7.6,3.5,11.8c1.2,2.3,1.3,4.2,3.7,6.8
			c0.8,1.5,1.6,3,3.2,4.1c2,1.9,4,3.7,8.6,5.1c1.2,0.3,6.2,0.6,5.8-0.2c1.2,0.3,5.7-2.1,6.4-2.5c1.5-0.8,1.9-2,3.4-2.8
			c0.8-0.4,1.1-1.6,1.9-2c2.2-3.1,2.9-5.5,3.6-7.8c1.4-4.7,2.4-8.1,3-12.4c2.6-15.1,3.6-29.3,4.7-43.5c1.1-14.2,1.4-28.1,1.7-41.9
			c0.6-27.7,0.9-54.2,0.8-81.4c0.5-53,0.3-105.6,0.6-155.5c0.3-24.6,0.7-49.2,1-73.7c0.7-23.8,2.2-48.1,5-70c1-5.4,1.5-11.6,2.5-17
			c1-5.4,1.9-10.8,3.7-14.7c0.3-1.2,1.1-1.6,0.7-2.3c0.4,0.8,2,1.9,2.4,2.6c0.8,1.5,2,3.8,3.3,6c4.2,9.5,7.6,19.3,9.4,30
			c2.6,10.3,4.5,21,6,30.9c6.7,41.2,11.9,81.4,17.4,118.4c1.1,9.2,3.3,18.7,4.4,27.9c1.8,8.8,4.1,18.3,7.1,27.4
			c1.2,2.3,1.7,4.9,3.7,6.8c0.8,1.5,2.4,2.6,4,3.7c0.4,0.8,1.2,0.3,1.6,1.1c1.2,0.3,1.2,0.3,2.3,0.7c1.9-0.1,0.8-0.4,1.9-0.1
			l0.8-0.4l0.8-0.4l0.8-0.4c0.8-0.4,1.9-0.1,2.7-0.5c1.5-0.8,2.3-1.2,3.8-2c2.3-1.2,4.1-3.2,6.4-4.4c7.1-6.8,11.4-15,15.4-22
			c4-7,8-14.1,11.6-20c2.2-3.1,4.4-6.3,6.3-8.3c1.5-0.8,1.9-2,3.4-2.8c0.8-0.4,0.8-0.4,1.5-0.8c0,0,0.1,0,0.2-0.1
			c0,0,0.1-0.1,0.1-0.1c0,0,0,0,0,0c0,0,0,0,0,0c0,0,0,0,0,0c0,0,0,0,0,0c0,0-0.1,0-0.1,0.1c0,0-0.1,0-0.2,0.1l1.2,0.3
			c0,0,0.4,0.8,1.2,0.3c0.4,0.8,1.2,0.3,1.6,1.1c0.8,1.5,2,1.9,2.8,3.4c1.6,3,4,5.6,5.7,8.6c3.3,6,5.8,12.5,9.1,18.5
			c10.4,24.6,18.1,47.8,28.3,66.6c1.2,2.3,2.5,4.5,4.4,6.4c0.8,1.5,2,1.9,2.8,3.4c1.6,1.1,2,1.9,4.3,2.5c0,0,1.2,0.3,1.9-0.1
			c0.1,0,0.1-0.1,0.2-0.1C1818.2,645.5,1817.1,644.5,1816.2,642.8z M1246,746.9c0-0.1,0-0.1-0.1-0.1c0,0,0,0,0-0.1
			c-0.1-0.2-0.1-0.1,0,0c0,0,0,0,0,0.1C1246,746.8,1246,746.8,1246,746.9C1246.1,746.9,1246.1,746.9,1246,746.9
			C1246.1,746.9,1246.1,746.9,1246,746.9z"/>
		
			<linearGradient id="SVGID_4_" gradientUnits="userSpaceOnUse" x1="1863.2374" y1="-3959.5276" x2="1863.2374" y2="-5159.5273" gradientTransform="matrix(1 0 0 -1 0 -3959.5276)">
			<stop  offset="0" style="stop-color:#EB5757"/>
			<stop  offset="1" style="stop-color:#9B51E0"/>
		</linearGradient>
		<path class="st4" d="M1862,588.7c-2.4,1.3-4.8,3.9-7.3,7.3c1.6-1.7,3.3-3.1,5.1-4.1c3.8-2,6.8-3.7,8.7-3.7
			c1.5-0.8,1.9-0.1,2.7-0.5l0.7-2.3C1871.8,585.3,1867.6,584.7,1862,588.7z"/>
		<path class="st3" d="M0,0v1200h2000V0H0z M1703.8,588.6C1702.6,588.2,1703.4,587.8,1703.8,588.6L1703.8,588.6z M1871.7,587.3
			c0,0-0.2,0.1-0.6,0.3c-0.8,0.4-1.2-0.3-2.7,0.5c-1.9,0.1-4.9,1.7-8.7,3.7c-1.9,1-3.5,2.4-5.1,4.1c-0.6,0.8-1.3,1.7-1.9,2.6
			c-3.3,4.7-6.2,10.2-9.4,16.8c-3.2,6.6-6.1,14-11.6,21.9c-1.1,1.6-3,3.6-4.8,5.5c-0.8,0.4-2.3,1.2-3.8,2c0,0,0,0,0,0
			c-0.5,0.3-1,0.5-1.5,0.8c0,0,0,0-0.8,0.4l-0.8,0.4c-0.3-0.1-0.6-0.2-1-0.4c-0.1,0-0.1,0.1-0.2,0.1c-0.8,0.4-1.9,0.1-1.9,0.1
			c-2.3-0.7-2.7-1.4-4.3-2.5c-0.8-1.5-2-1.9-2.8-3.4c-2-1.9-3.2-4.1-4.4-6.4c-10.2-18.9-17.9-42-28.3-66.6c-3.3-6-5.8-12.5-9.1-18.5
			c-1.6-3-4-5.6-5.7-8.6c-0.8-1.5-2-1.9-2.8-3.4c-0.4-0.8-1.2-0.3-1.6-1.1c-0.8,0.4-1.2-0.3-1.2-0.3l-1.2-0.3
			c-0.8,0.4-0.8,0.4-1.5,0.8c-1.5,0.8-1.9,2-3.4,2.8c-1.9,2-4.1,5.1-6.3,8.3c-3.6,5.9-7.6,12.9-11.6,20c-4,7-8.3,15.2-15.4,22
			c-2.3,1.2-4.1,3.2-6.4,4.4c-1.5,0.8-2.3,1.2-3.8,2c-0.8,0.4-1.9,0.1-2.7,0.5l-0.8,0.4l-0.8,0.4l-0.8,0.4c-1.2-0.3,0,0-1.9,0.1
			c-1.2-0.3-1.2-0.3-2.3-0.7c-0.4-0.8-1.2-0.3-1.6-1.1c-1.6-1.1-3.1-2.2-4-3.7c-2-1.9-2.5-4.5-3.7-6.8c-3-9.1-5.2-18.6-7.1-27.4
			c-1.1-9.2-3.3-18.7-4.4-27.9c-5.5-37.1-10.6-77.2-17.4-118.4c-1.5-9.9-3.4-20.6-6-30.9c-1.9-10.7-5.3-20.6-9.4-30
			c-1.2-2.3-2.5-4.5-3.3-6c-0.4-0.8-2-1.9-2.4-2.6c0.4,0.8-0.3,1.2-0.7,2.3c-1.8,3.9-2.8,9.3-3.7,14.7c-1,5.4-1.5,11.6-2.5,17
			c-2.7,22-4.2,46.2-5,70c-0.3,24.6-0.7,49.2-1,73.7c-0.3,49.9-0.1,102.5-0.6,155.5c0.1,27.3-0.1,53.8-0.8,81.4
			c-0.3,13.8-0.6,27.7-1.7,41.9c-1.1,14.2-2.1,28.5-4.7,43.5c-0.6,4.2-1.7,7.7-3,12.4c-0.7,2.3-1.4,4.7-3.6,7.8
			c-0.8,0.4-1.1,1.6-1.9,2c-1.5,0.8-1.9,2-3.4,2.8c-0.8,0.4-5.3,2.9-6.4,2.5c0.4,0.8-4.6,0.5-5.8,0.2c-4.7-1.4-6.6-3.2-8.6-5.1
			c-1.6-1.1-2.4-2.6-3.2-4.1c-2.4-2.6-2.5-4.5-3.7-6.8c-1.3-4.2-2.6-8.4-3.5-11.8c-3.9-14.5-6-29-8-43.5c-4-29-6.9-57.7-9.8-86.4
			c-5-57.8-9.6-116.8-14.7-176.5c-2.5-29.9-5.1-59.7-8.3-89.2c-2-14.5-3.7-30.2-5.7-44.7c-1-7.3-2-14.5-3-21.8
			c-0.4-0.8-0.1-1.9-0.5-2.7c-1.2,10.4-2.8,20.1-3.2,30.1c-2.5,29.6-3.4,60.4-4.3,91.1c-1.8,61.5-2.4,123.3-3.8,185.6
			c-0.5,31.5-1.4,62.2-3,93.4c-1.4,15.4-1.7,31.2-3.8,47c-0.5,8.1-2.2,15.8-3.4,24.3c-0.6,4.2-1.3,8.5-4.1,14
			c-0.3,1.2-1,3.5-2.9,5.5c-1.1,1.6-1.4,2.7-3.7,4c-1.1,1.6-8.7,3.7-7.2,2.9c-4.6,0.5-5.8,0.2-8.1-0.5c-2.3-0.7-3.9-1.8-5.5-2.9
			c-2-1.9-4-3.7-4.8-5.2c-1.6-3-2.9-5.3-4.1-7.5c-1.2-2.3-1.3-4.2-2.5-6.4c-1.3-4.2-2.2-7.6-3.5-11.8c-2.2-7.6-3.6-15.6-5-23.6
			c-2.4-15.3-4.9-30.6-6.5-46.2c-3.3-31.4-7-61.6-10-92.2c-2.9-30.6-6.6-60.8-9.1-90.7c-3.3-29.5-7-59.7-11.8-88.3
			c-0.9-3.4-1.4-8-2.7-12.2c-1.4,4.7-1.6,9.7-3,14.3c-5.2,28.2-8.1,57.1-11,86c-2.5,29.6-5,57.4-7.9,86.3
			c-1.8,14.6-3.3,28.1-5.1,42.8c-1.3,6.6-2.2,13.9-3.9,21.6c-0.6,4.2-1.7,7.7-3,12.4c-0.3,1.2-0.7,2.3-1.8,3.9
			c-0.3,1.2-1.1,1.6-2.2,3.1c-1.1,1.6-0.7,2.3-7.1,4.8c0.4,0.8-10.3,0.7-10.4-1.2c-2.7-1.4-3.1-2.2-4-3.7c-1.2-2.3-1.6-3-2.5-4.5
			c-1.2-2.3-1.7-4.9-2.5-6.4c-1.2-2.3-2-3.8-2.1-5.7c-0.9-3.4-1.8-6.9-2.6-10.3c-1-7.3-2.8-14.1-3.8-21.4
			c-2.8-14.1-4.4-27.9-6.7-41.2c-4-27.1-7.9-54.3-12.3-80.2c-4.3-26-8.6-51.9-14-76.3c-1.4-6.1-3.5-11.8-4.8-17.9
			c-1.7-4.9-3.4-9.9-5.1-14.8c-0.7,2.3-1.4,4.7-2.1,7c-2.7,11.2-4.6,24-6.1,35.5c-1.1,12.3-2.7,23.9-3.8,36.2
			c-2.7,23.9-4.6,47.4-6.5,70.9c-2.3,22.7-4.2,46.2-7,68.2c-1.2,10.4-2.7,22-4.7,32.8c-1,5.4-1.9,10.8-3.7,16.6
			c-1.4,2.7-1.7,5.8-3.9,9c-1.9,2-2.2,3.1-5.6,5.9c-0.8,0.4-3,1.6-3,1.6c-0.8,0.4,1.2,0.3-2.7,0.5c-1.2-0.3-1.9,0.1-3.1-0.3
			c-1.2-0.3-1.2-0.3-2.3-0.7c-2.7-1.4-4.7-3.3-5.5-4.8c-1.6-1.1-2.4-2.6-3.2-4.1c-2-1.9-2.9-5.3-4.1-7.5c-2.1-5.7-3.8-10.6-5.5-15.6
			c-2.6-10.3-5.3-20.6-7.5-30.1c-4.9-19.8-8.6-39.3-12.7-57.6c-3.3-18.7-7-36.2-11.4-53.4c-1.8-8.8-4.4-17.1-7.3-24.3
			c-0.8-1.5-1.6-3-2.5-4.5c-0.4-0.8-0.4-0.8-0.4-0.8c-0.3,1.2-0.3,1.2-1.1,1.6c-0.3,1.2-1.4,2.7-2.5,4.3c-3.6,5.9-6.5,13.3-9.3,20.7
			c-2.8,7.4-5.7,14.8-7.7,21.8c-4.9,14.4-9,28.3-14,40.8c-2.5,6.2-5,12.4-8.6,18.3c-1.1,1.6-2.2,3.1-3.3,4.7c-0.8,0.4-1.9,2-2.6,2.4
			l-0.8,0.4c0,0,0,0-0.8,0.4c-0.8,0.4-1.5,0.8-1.5,0.8l-0.8,0.4c-1.2-0.3-1.2-0.3-1.2-0.3l-1.2-0.3l-1.2-0.3
			c-1.2-0.3-1.6-1.1-2.7-1.4c-1.2-0.3-2.7-1.4-4.3-2.5c-4.4-4.5-8.3-8.2-11.9-13c-3.6-4.9-6.8-9-10-13.1c-6.4-8.2-12.8-16.5-18.8-22
			c-1.6-1.1-3.1-2.2-4.7-3.3l-1.2-0.3c-0.8,0.4-1.2-0.3-1.2-0.3c-0.4-0.8-1.2-0.3-1.2-0.3l-1.2-0.3c-3.8,0.1-7.7,0.3-11.5,0.4
			c-29.2,0.2-44.5,0.7-44.5,0.7l0.3-3.1c0,0,16.1-0.9,44.9-1.9c3.8-0.1,7.7-0.3,11.5-0.4l1.9-0.1c0.8-0.4,0.8-0.4,0.8-0.4l0.8-0.4
			c1.2,0.3,1.2,0.3,2.3,0.7l1.6,1.1c2.3,0.7,3.9,1.8,5.9,3.6c7.5,6.7,13.5,14.1,19.9,22.4c3.2,4.1,7.6,8.6,10.8,12.7
			c4,3.7,7.6,8.6,12.3,11.9c1.2,0.3,2,1.9,3.1,2.2l1.2,0.3c1.2,0.3,1.2,0.3,1.2,0.3c0.3-1.2,0.3-1.2,1.1-1.6c0.8-0.4,1.9-2,2.2-3.1
			c2.1-5.1,4.6-11.3,7.1-17.5c4.6-13.2,7.9-26.8,12.8-41.1c2.4-8.1,4.5-15.1,7.3-22.5c2.8-7.4,5.7-14.8,10-23
			c0.7-2.3,1.8-3.9,3.6-5.9c1.9-2,3.7-4,7.9-5.3c1.2,0.3,1.2,0.3,1.9-0.1c1.9-0.1,1.2,0.3,1.9-0.1c0,0,1.9-0.1,2.3,0.7
			c1.2,0.3,1.2,0.3,1.6,1.1c1.6,1.1,2,1.9,2.8,3.4c1.6,3,2.5,4.5,3.7,6.8c3.7,8.7,5.6,17.5,8.2,25.8c4.4,17.1,8.5,35.4,12.5,53.7
			c4.1,18.3,8.5,37.3,13,56.4c2.2,9.5,4.5,19,7.9,28.9c1.7,4.9,3,9.1,5.4,13.6c1.2,2.3,2.5,4.5,3.3,6c0.3-1.2,0.7-2.3,1-3.5
			c1.4-4.7,2.4-10.1,3.3-15.5c1.2-10.4,3.1-21.2,3.9-32.4c2-21.6,3.5-43.9,5.4-67.4c1.9-23.5,3.1-46.6,5.3-71.2
			c1.1-12.3,2.3-24.6,3.4-37c1.1-12.3,3.4-24.3,6.1-37.4c0.3-3.1,1.3-6.6,2.4-10.1c1.4-2.7,2.5-6.2,5.8-10.9c0,0,0.3-1.2,1.1-1.6
			c0.3-1.2,1.1-1.6,1.9-2c0.8-0.4,2.3-1.2,3-1.6c0.8-0.4,1.5-0.8,3.4-0.9s4.6-0.5,3.8-0.1c1.9-0.1,3.5,1,4.7,1.4
			c1.6,1.1,3.1,2.2,4.7,3.3c3.1,2.2,4,3.7,5.2,6c1.2,2.3,2,3.8,2.9,5.3c2.9,7.2,5,12.9,6.8,19.7c1.8,6.9,3.5,13.7,4.9,19.8
			c5.8,25.1,10.5,51.9,14.9,77.8c4.3,26,8.3,53.1,13,79.8c2,12.6,4.7,24.8,6.6,37.4c1.2-10.4,1.6-20.4,2.8-30.8
			c2.9-28.9,5-57.4,7.9-86.3c2.9-28.9,5.8-57.8,10.9-87.9c1.7-7.7,2.6-15.1,5-23.2c1-3.5,2.4-8.1,4.2-12c0.7-2.3,2.5-4.3,4-7
			c1.5-0.8,1.9-2,3.7-4c2.3-1.2,4.1-3.2,7.5-4.1c1.9-0.1,2.7-0.5,6.5-0.6c-1.2-0.3,4.2,0.6,5.8,1.7c3.9,1.8,5.9,3.6,6.7,5.2
			c1.6,3,2.9,5.3,4.1,7.5c2.5,4.5,3.3,8,4.6,12.1c2.2,7.6,3.9,14.5,5.4,22.5c5.6,30.1,9.3,60.3,13,90.6c3.3,29.5,7,59.7,9.9,90.3
			c2.9,30.6,6.6,60.8,10.3,91c2.4,15.3,4.4,29.8,6.9,45.1c0.4,0.8,0.1,1.9,0.5,2.7c1.1-12.3,1.8-25.4,2.6-38.5
			c1.3-30,1.8-61.5,2.7-92.2c0.6-61.8,2-124.1,3.8-185.6c0.9-30.7,1.4-62.2,4.2-93c1.4-15.4,2.8-30.8,5.7-47c1-3.5,1.7-7.7,3-12.4
			c0.7-2.3,1.4-4.7,2.8-7.4c-0.4-0.8,0.3-1.2,0.7-2.3s1.1-1.6,1.4-2.7c1.1-1.6,3-3.6,5.6-5.9c1.1-1.6,2.6-2.4,5.3-2.9
			c0.8-0.4,7.3-1,6.5-0.6c0,0,6.6,1.3,7,2.1c1.6,1.1,2,1.9,3.6,3c2,1.9,3.6,3,4.4,4.5s1.2,2.3,2,3.8c2.5,4.5,3.7,8.7,5,12.9
			c2.2,7.6,3.6,15.6,5,23.6c1.4,8,2.8,16,3.8,23.3c1.7,15.7,4.1,31,5.4,45.9c2.9,30.6,5.5,60.5,8,90.3c5,59.7,8.5,118.3,13.5,176.1
			c2.9,28.7,5.3,56.6,9,84.9c0.7,8.4,2.5,17.2,3.9,25.2c0.9-7.3,1.8-14.6,2.3-22.7c1.1-14.2,1.8-27.3,2.1-41.1
			c1-26.9,2.1-53.8,2.3-80.3c1-52.2,1.9-104.5,2.9-154.8c1.1-25,1.4-49.6,2.9-73.8c1.5-24.2,3-48.5,6.1-71.6
			c1-5.4,1.5-11.6,3.3-17.4c1.3-6.6,3-12.4,5.5-18.6c-0.1-1.9,1-3.5,2.1-5.1s2.2-3.1,4.8-5.5c1.1-1.6,2.6-2.4,4.5-2.5
			c1.2,0.3,1.2,0.3,3.8-0.1l1.2,0.3c0,0,0,0,1.2,0.3c1.2,0.3,1.2,0.3,2.3,0.7c1.2,0.3,1.9-0.1,2.3,0.7l1.6,1.1
			c3.9,1.8,5.9,5.6,8.3,8.2c1.6,3,2.9,5.3,4.5,8.3c5.4,11.7,7.3,22.4,10.3,33.4c1.9,10.7,3.8,21.4,5.7,32.1
			c6.4,42.4,10.4,82.2,15.1,119.7c1.1,9.2,2.1,18.4,4,27.1c1.1,9.2,2.9,17.9,5.8,25.1c0.8,1.5,2,3.8,2.5,4.5
			c2.7-0.5,5.7-2.1,8.3-4.5c6-5.2,10.4-11.5,14.4-18.5c4.7-7.5,8-14.1,13.1-20.8c2.2-3.1,5.2-6.7,8.5-9.5c3.4-2.8,7.5-6,14-4.7
			c1.9-0.1,2.7,1.4,3.9,1.8c1.2,0.3,2.7,1.4,3.1,2.2c0.8,1.5,2.8,3.4,3.6,4.9c1.6,3,3.7,6.8,5.3,9.8c3.7,6.8,6.2,13.2,8.7,19.7
			c4.6,12.1,9.2,24.3,13.5,35.6c4.2,11.4,8,22,12.9,31.1c1.2,2.3,2.5,4.5,3.7,6.8c0.9,1.7,2,2.7,3,3.3c0.6-0.3,0.6-0.3,0.6-0.3
			l0.8-0.4c0,0,1.5-0.8,2.7-0.5c0.3-0.1,0.5-0.3,0.8-0.4c1.5-0.8,3.4-2.8,4.5-4.4c4.7-7.5,8.7-14.5,12-21.1s6.1-12.1,9.4-16.8
			c1.7-2.4,3.2-4.5,4.9-6.2c2.5-3.4,4.9-5.9,7.3-7.3c5.6-4,9.9-3.4,9.9-3.4l-0.7,2.3C1871.5,587.4,1871.7,587.3,1871.7,587.3z"/>
		<path class="st3" d="M1755.8,535c0.1,0,0.1-0.1,0.2-0.1C1755.9,535,1755.8,535,1755.8,535z"/>
		<path class="st3" d="M1703.8,588.6C1703.4,587.8,1702.6,588.2,1703.8,588.6L1703.8,588.6z"/>
		<path class="st3" d="M1245.9,746.7C1245.9,746.6,1245.8,746.5,1245.9,746.7L1245.9,746.7z"/>
	</g>
</g>
</svg>
