<?xml version="1.0" encoding="utf-8"?>
<!-- Generator: Adobe Illustrator 21.0.0, SVG Export Plug-In . SVG Version: 6.00 Build 0)  -->
<svg version="1.1" xmlns="http://www.w3.org/2000/svg" xmlns:xlink="http://www.w3.org/1999/xlink" x="0px" y="0px"
	 viewBox="0 0 2000 1200" style="enable-background:new 0 0 2000 1200;" xml:space="preserve">
<style type="text/css">
	.st0{fill:url(#SVGID_1_);}
	.st1{opacity:0.6;}
	.st2{fill:url(#SVGID_2_);stroke:url(#SVGID_3_);stroke-miterlimit:10;}
	.st3{fill:#0A0A0A;}
	.st4{fill:url(#SVGID_4_);}
	.st5{fill:url(#SVGID_5_);}
	.st6{fill:url(#SVGID_6_);}
	.st7{fill:url(#SVGID_7_);}
	.st8{fill:url(#SVGID_8_);}
	.st9{fill:url(#SVGID_9_);}
	.st10{fill:url(#SVGID_10_);}
	.st11{fill:url(#SVGID_11_);}
	.st12{fill:url(#SVGID_12_);}
	.st13{fill:url(#SVGID_13_);}
	.st14{fill:url(#SVGID_14_);}
	.st15{fill:url(#SVGID_15_);}
	.st16{fill:url(#SVGID_16_);}
	.st17{fill:url(#SVGID_17_);}
	.st18{fill:url(#SVGID_18_);}
	.st19{fill:url(#SVGID_19_);}
	.st20{fill:url(#SVGID_20_);}
	.st21{fill:url(#SVGID_21_);}
	.st22{fill:url(#SVGID_22_);}
	.st23{fill:url(#SVGID_23_);}
	.st24{fill:#141414;}
	.st25{fill:url(#SVGID_24_);}
	.st26{fill:url(#SVGID_25_);}
	.st27{fill:url(#SVGID_26_);}
	.st28{fill:url(#SVGID_27_);}
	.st29{fill:url(#SVGID_28_);}
	.st30{fill:url(#SVGID_29_);}
	.st31{opacity:0.3;}
	.st32{fill:none;stroke:#FFFFFF;stroke-miterlimit:10;}
	.st33{fill:none;stroke:#FFFFFF;stroke-width:0.3;stroke-miterlimit:10;}
	.st34{fill:none;stroke:#FFFFFF;stroke-width:0.6;stroke-miterlimit:10;}
	.st35{fill:none;stroke:#FFFFFF;stroke-width:1.5;stroke-miterlimit:10;}
</style>
<g id="Layer_3_12_">
</g>
<g id="Layer_2_1_">
	<g>
		
			<linearGradient id="SVGID_1_" gradientUnits="userSpaceOnUse" x1="1454.7323" y1="-7758.2188" x2="1454.7323" y2="-6558.2188" gradientTransform="matrix(1 0 0 -1 0 -6558.2188)">
			<stop  offset="0" style="stop-color:#2D9CDB"/>
			<stop  offset="1" style="stop-color:#9B51E0"/>
		</linearGradient>
		<path class="st0" d="M1454.7,376.5c-151.1,0-274,122.9-274,274s125.6,157.9,276.7,157.9c151.1,0,271.3-6.8,271.3-157.9
			S1605.8,376.5,1454.7,376.5z M1457.4,794.9c-143.7,0-263.3-0.8-263.3-144.5c0-143.7,116.9-260.6,260.6-260.6
			c143.7,0,260.6,116.9,260.6,260.6C1715.3,794.1,1601.1,794.9,1457.4,794.9z"/>
		
			<linearGradient id="SVGID_2_" gradientUnits="userSpaceOnUse" x1="1454.728" y1="-7758.2188" x2="1454.728" y2="-6558.2188" gradientTransform="matrix(1 0 0 -1 0 -6558.2188)">
			<stop  offset="0" style="stop-color:#2D9CDB"/>
			<stop  offset="1" style="stop-color:#9B51E0"/>
		</linearGradient>
		<path style="fill:url(#SVGID_2_);" d="M1578.7,650.4c0-68.3-55.6-123.9-123.9-123.9c-68.3,0-123.9,55.6-123.9,123.9
			s55.6,64.5,123.9,64.5C1523.1,715,1578.7,718.8,1578.7,650.4z M1454.7,701.6C1454.7,701.6,1454.7,701.6,1454.7,701.6
			c-60.9,0-110.5,9.8-110.5-51.1c0-60.9,49.6-110.5,110.5-110.5c60.9,0,110.5,49.6,110.5,110.5S1515.7,701.6,1454.7,701.6
			C1454.8,701.6,1454.8,701.6,1454.7,701.6z"/>
		
			<linearGradient id="SVGID_3_" gradientUnits="userSpaceOnUse" x1="1454.7324" y1="-7758.2188" x2="1454.7324" y2="-6558.2188" gradientTransform="matrix(1 0 0 -1 0 -6558.2188)">
			<stop  offset="0" style="stop-color:#2D9CDB"/>
			<stop  offset="1" style="stop-color:#9B51E0"/>
		</linearGradient>
		<path style="fill:url(#SVGID_3_);" d="M1454.7,406.5c-134.5,0-244,109.4-244,244c0,134.5,112.1,136.3,246.7,136.3
			c134.5,0,241.3-1.8,241.3-136.3C1698.7,515.9,1589.3,406.5,1454.7,406.5z M1457.4,773.3c-127.1,0-233.3,4.3-233.3-122.9
			s103.4-230.5,230.6-230.5s230.6,103.4,230.6,230.5S1584.6,773.3,1457.4,773.3z"/>
		
			<linearGradient id="SVGID_4_" gradientUnits="userSpaceOnUse" x1="1454.7323" y1="-7758.2188" x2="1454.7323" y2="-6558.2188" gradientTransform="matrix(1 0 0 -1 0 -6558.2188)">
			<stop  offset="0" style="stop-color:#2D9CDB"/>
			<stop  offset="1" style="stop-color:#9B51E0"/>
		</linearGradient>
		<path class="st4" d="M1454.7,496.5c-84.9,0-153.9,69.1-153.9,153.9c0,84.9,69.1,78,153.9,78c84.9,0,153.9,6.9,153.9-78
			C1608.7,565.6,1539.6,496.5,1454.7,496.5z M1454.7,715c-77.5,0-140.5,12.9-140.5-64.5c0-77.5,63-140.5,140.5-140.5
			c77.5,0,140.5,63,140.5,140.5C1595.2,727.9,1532.2,715,1454.7,715z"/>
		
			<linearGradient id="SVGID_5_" gradientUnits="userSpaceOnUse" x1="1454.728" y1="-7758.2188" x2="1454.728" y2="-6558.2188" gradientTransform="matrix(1 0 0 -1 0 -6558.2188)">
			<stop  offset="0" style="stop-color:#2D9CDB"/>
			<stop  offset="1" style="stop-color:#9B51E0"/>
		</linearGradient>
		<path class="st5" d="M1454.7,436.5c-118,0-214,96-214,214c0,118,96,112,214,112c118,0,214,6,214-112
			C1668.7,532.4,1572.7,436.5,1454.7,436.5z M1454.7,749c-110.6,0-200.5,12-200.5-98.6s90-200.5,200.5-200.5
			c110.6,0,200.5,90,200.5,200.5S1565.3,749,1454.7,749z"/>
		
			<linearGradient id="SVGID_6_" gradientUnits="userSpaceOnUse" x1="1454.7324" y1="-7758.2188" x2="1454.7324" y2="-6558.2188" gradientTransform="matrix(1 0 0 -1 0 -6558.2188)">
			<stop  offset="0" style="stop-color:#2D9CDB"/>
			<stop  offset="1" style="stop-color:#9B51E0"/>
		</linearGradient>
		<path class="st6" d="M1454.7,346.4c-167.6,0-304,136.4-304,304c0,167.6,141.5,185.5,309.1,185.5s298.9-17.9,298.9-185.5
			C1758.7,482.8,1622.4,346.4,1454.7,346.4z M1459.8,822.5c-160.2,0-295.7-11.8-295.7-172.1c0-160.2,130.3-290.6,290.6-290.6
			c160.2,0,290.6,130.3,290.6,290.6C1745.3,810.7,1620.1,822.5,1459.8,822.5z"/>
		
			<linearGradient id="SVGID_7_" gradientUnits="userSpaceOnUse" x1="1454.7323" y1="-7758.2188" x2="1454.7323" y2="-6558.2188" gradientTransform="matrix(1 0 0 -1 0 -6558.2188)">
			<stop  offset="0" style="stop-color:#2D9CDB"/>
			<stop  offset="1" style="stop-color:#9B51E0"/>
		</linearGradient>
		<path class="st7" d="M1518.6,650.4c0-35.2-28.7-63.9-63.9-63.9c-35.2,0-63.9,28.7-63.9,63.9s28.7,37.7,63.9,37.7
			C1490,688.1,1518.6,685.7,1518.6,650.4z M1454.7,674.7c-27.9,0-50.5,3.5-50.5-24.3c0-27.9,22.7-50.5,50.5-50.5
			c27.8,0,50.5,22.6,50.5,50.5C1505.2,678.3,1482.6,674.7,1454.7,674.7z"/>
		
			<linearGradient id="SVGID_8_" gradientUnits="userSpaceOnUse" x1="1454.7323" y1="-7758.2188" x2="1454.7323" y2="-6558.2188" gradientTransform="matrix(1 0 0 -1 0 -6558.2188)">
			<stop  offset="0" style="stop-color:#2D9CDB"/>
			<stop  offset="1" style="stop-color:#9B51E0"/>
		</linearGradient>
		<path class="st8" d="M1454.7,316.4c-184.2,0-334,149.8-334,334c0,184.2,154.9,222.6,339.1,222.6c184.2,0,328.9-38.4,328.9-222.6
			C1788.7,466.3,1638.9,316.4,1454.7,316.4z M1459.8,859.6c-176.8,0-325.7-32.4-325.7-209.2c0-176.8,143.8-320.6,320.6-320.6
			c176.8,0,320.6,143.8,320.6,320.6C1775.3,827.2,1636.6,859.6,1459.8,859.6z"/>
		
			<linearGradient id="SVGID_9_" gradientUnits="userSpaceOnUse" x1="1454.7324" y1="-7758.2188" x2="1454.7324" y2="-6558.2188" gradientTransform="matrix(1 0 0 -1 0 -6558.2188)">
			<stop  offset="0" style="stop-color:#2D9CDB"/>
			<stop  offset="1" style="stop-color:#9B51E0"/>
		</linearGradient>
		<path class="st9" d="M1454.7,286.4c-200.7,0-364,163.3-364,364c0,200.7,168.4,263.1,369.1,263.1s358.9-62.4,358.9-263.1
			C1818.7,449.7,1655.4,286.4,1454.7,286.4z M1459.8,900.2c-193.3,0-355.7-56.4-355.7-249.7c0-193.3,157.3-350.6,350.6-350.6
			s350.6,157.3,350.6,350.6C1805.3,843.8,1653.2,900.2,1459.8,900.2z"/>
		
			<linearGradient id="SVGID_10_" gradientUnits="userSpaceOnUse" x1="1454.7324" y1="-7758.2188" x2="1454.7324" y2="-6558.2188" gradientTransform="matrix(1 0 0 -1 0 -6558.2188)">
			<stop  offset="0" style="stop-color:#2D9CDB"/>
			<stop  offset="1" style="stop-color:#9B51E0"/>
		</linearGradient>
		<path class="st10" d="M1548.6,650.4c0-51.8-42.1-93.9-93.9-93.9c-51.8,0-93.9,42.1-93.9,93.9c0,51.8,42.1,51.1,93.9,51.1
			c0,0,0,0,0,0c0,0,0,0,0,0s0,0,0,0C1506.5,701.6,1548.6,702.2,1548.6,650.4z M1454.7,688.1c-44.4,0-80.5,6.7-80.5-37.7
			s36.1-80.5,80.5-80.5s80.5,36.1,80.5,80.5S1499.1,688.1,1454.7,688.1z"/>
		
			<linearGradient id="SVGID_11_" gradientUnits="userSpaceOnUse" x1="1454.7324" y1="-7758.2188" x2="1454.7324" y2="-6558.2188" gradientTransform="matrix(1 0 0 -1 0 -6558.2188)">
			<stop  offset="0" style="stop-color:#2D9CDB"/>
			<stop  offset="1" style="stop-color:#9B51E0"/>
		</linearGradient>
		<path class="st11" d="M1454.7,466.5c-101.4,0-184,82.5-184,183.9c0,101.4,82.5,92.2,184,92.2c101.4,0,183.9,9.2,183.9-92.2
			C1638.7,549,1556.2,466.5,1454.7,466.5z M1454.7,729.2c-94,0-170.5,15.2-170.5-78.8c0-94,76.5-170.5,170.5-170.5
			c94,0,170.5,76.5,170.5,170.5C1625.3,744.5,1548.8,729.2,1454.7,729.2z"/>
		
			<linearGradient id="SVGID_12_" gradientUnits="userSpaceOnUse" x1="1454.7324" y1="-7758.2188" x2="1454.7324" y2="-6558.2188" gradientTransform="matrix(1 0 0 -1 0 -6558.2188)">
			<stop  offset="0" style="stop-color:#2D9CDB"/>
			<stop  offset="1" style="stop-color:#9B51E0"/>
		</linearGradient>
		<path class="st12" d="M1454.7,616.5c-18.7,0-33.9,15.2-33.9,33.9c0,18.7,15.2,24.3,33.9,24.3c18.7,0,33.9-5.6,33.9-24.3
			C1488.6,631.7,1473.4,616.5,1454.7,616.5z M1454.7,670.9c-11.3,0-20.5-9.2-20.5-20.5c0-11.3,9.2-20.5,20.5-20.5
			c11.3,0,20.5,9.2,20.5,20.5C1475.2,661.7,1466,670.9,1454.7,670.9z"/>
		<path class="st3" d="M1565.3,650.4c0-60.9-49.6-110.5-110.5-110.5c-60.9,0-110.5,49.6-110.5,110.5c0,60.9,49.6,51.1,110.5,51.1
			c0,0,0,0,0,0c-51.8,0-93.9,0.7-93.9-51.1c0-51.8,42.1-93.9,93.9-93.9c51.8,0,93.9,42.1,93.9,93.9c0,51.8-42.1,51.1-93.9,51.1
			C1515.7,701.6,1565.3,711.4,1565.3,650.4z"/>
		<path class="st3" d="M1454.7,419.9c-127.1,0-230.6,103.4-230.6,230.5s106.1,122.9,233.3,122.9c127.1,0,227.9,4.3,227.9-122.9
			S1581.9,419.9,1454.7,419.9z M1454.7,762.4c-118,0-214,6-214-112c0-118,96-214,214-214c118,0,214,96,214,214
			C1668.7,768.4,1572.7,762.4,1454.7,762.4z"/>
		<path class="st3" d="M1454.7,389.9c-143.7,0-260.6,116.9-260.6,260.6c0,143.7,119.6,144.5,263.3,144.5
			c143.7,0,257.9-0.8,257.9-144.5C1715.3,506.8,1598.4,389.9,1454.7,389.9z M1457.4,786.7c-134.5,0-246.7-1.8-246.7-136.3
			c0-134.5,109.4-244,244-244s244,109.4,244,244C1698.7,784.9,1592,786.7,1457.4,786.7z"/>
		<path class="st3" d="M1454.7,509.9c-77.5,0-140.5,63-140.5,140.5c0,77.5,63,64.5,140.5,64.5c-68.3,0-123.9,3.8-123.9-64.5
			s55.6-123.9,123.9-123.9c68.3,0,123.9,55.6,123.9,123.9s-55.6,64.5-123.9,64.5c77.5,0,140.5,12.9,140.5-64.5
			C1595.2,572.9,1532.2,509.9,1454.7,509.9z"/>
		<path class="st3" d="M1454.7,479.9c-94,0-170.5,76.5-170.5,170.5c0,94,76.5,78.8,170.5,78.8c94,0,170.5,15.2,170.5-78.8
			C1625.3,556.4,1548.8,479.9,1454.7,479.9z M1454.7,728.4c-84.9,0-153.9,6.9-153.9-78c0-84.9,69.1-153.9,153.9-153.9
			c84.9,0,153.9,69.1,153.9,153.9C1608.7,735.3,1539.6,728.4,1454.7,728.4z"/>
		<path class="st3" d="M1535.2,650.4c0-44.4-36.1-80.5-80.5-80.5s-80.5,36.1-80.5,80.5s36.1,37.7,80.5,37.7
			S1535.2,694.8,1535.2,650.4z M1390.8,650.4c0-35.2,28.7-63.9,63.9-63.9c35.2,0,63.9,28.7,63.9,63.9s-28.7,37.7-63.9,37.7
			C1419.5,688.1,1390.8,685.7,1390.8,650.4z"/>
		<path class="st3" d="M1454.7,449.9c-110.6,0-200.5,90-200.5,200.5s90,98.6,200.5,98.6c110.6,0,200.5,12,200.5-98.6
			S1565.3,449.9,1454.7,449.9z M1454.7,742.7c-101.4,0-184,9.2-184-92.2c0-101.4,82.5-183.9,184-183.9
			c101.4,0,183.9,82.5,183.9,183.9C1638.7,751.8,1556.2,742.7,1454.7,742.7z"/>
		<path class="st3" d="M1454.7,630c-11.3,0-20.5,9.2-20.5,20.5c0,11.3,9.2,20.5,20.5,20.5c11.3,0,20.5-9.2,20.5-20.5
			C1475.2,639.1,1466,630,1454.7,630z"/>
		<path class="st3" d="M1454.7,299.8c-193.3,0-350.6,157.3-350.6,350.6c0,193.3,162.4,249.7,355.7,249.7s345.5-56.4,345.5-249.7
			C1805.3,457.1,1648,299.8,1454.7,299.8z M1459.8,873c-184.2,0-339.1-38.4-339.1-222.6c0-184.2,149.8-334,334-334
			s334,149.8,334,334C1788.7,834.6,1644,873,1459.8,873z"/>
		<path class="st3" d="M0,0v1200h2000V0H0z M1459.8,913.6c-200.7,0-369.1-62.4-369.1-263.1c0-200.7,163.3-364,364-364
			s364,163.3,364,364C1818.7,851.2,1660.6,913.6,1459.8,913.6z"/>
		<path class="st3" d="M1454.7,329.9c-176.8,0-320.6,143.8-320.6,320.6c0,176.8,148.9,209.2,325.7,209.2
			c176.8,0,315.5-32.4,315.5-209.2C1775.3,473.7,1631.5,329.9,1454.7,329.9z M1459.8,835.9c-167.6,0-309.1-17.9-309.1-185.5
			c0-167.6,136.4-304,304-304c167.6,0,304,136.4,304,304C1758.7,818.1,1627.5,835.9,1459.8,835.9z"/>
		<path class="st3" d="M1454.7,599.9c-27.9,0-50.5,22.6-50.5,50.5c0,27.8,22.7,24.3,50.5,24.3c27.8,0,50.5,3.5,50.5-24.3
			C1505.2,622.6,1482.6,599.9,1454.7,599.9z M1454.7,674.7c-18.7,0-33.9-5.6-33.9-24.3c0-18.7,15.2-33.9,33.9-33.9
			c18.7,0,33.9,15.2,33.9,33.9C1488.6,669.1,1473.4,674.7,1454.7,674.7z"/>
		<path class="st3" d="M1454.7,359.9c-160.2,0-290.6,130.3-290.6,290.6c0,160.2,135.5,172.1,295.7,172.1
			c160.2,0,285.5-11.8,285.5-172.1C1745.3,490.2,1615,359.9,1454.7,359.9z M1457.4,808.3c-151.1,0-276.7-6.8-276.7-157.9
			s122.9-274,274-274c151.1,0,274,122.9,274,274S1608.5,808.3,1457.4,808.3z"/>
	</g>
</g>
<g id="Layer_1">
</g>
</svg>
