<?xml version="1.0" encoding="utf-8"?>
<!-- Generator: Adobe Illustrator 21.0.0, SVG Export Plug-In . SVG Version: 6.00 Build 0)  -->
<svg version="1.1" xmlns="http://www.w3.org/2000/svg" xmlns:xlink="http://www.w3.org/1999/xlink" x="0px" y="0px"
	 viewBox="0 0 2000 1200" style="enable-background:new 0 0 2000 1200;" xml:space="preserve">
<style type="text/css">
	.st0{fill:url(#SVGID_1_);}
	.st1{opacity:0.6;}
	.st2{fill:url(#SVGID_2_);stroke:url(#SVGID_3_);stroke-miterlimit:10;}
	.st3{fill:#0A0A0A;}
	.st4{fill:url(#SVGID_4_);}
	.st5{fill:url(#SVGID_5_);}
	.st6{fill:url(#SVGID_6_);}
	.st7{fill:url(#SVGID_7_);}
	.st8{fill:url(#SVGID_8_);}
	.st9{fill:url(#SVGID_9_);}
	.st10{fill:url(#SVGID_10_);}
	.st11{fill:url(#SVGID_11_);}
	.st12{fill:url(#SVGID_12_);}
	.st13{fill:url(#SVGID_13_);}
	.st14{fill:url(#SVGID_14_);}
	.st15{fill:url(#SVGID_15_);}
	.st16{fill:url(#SVGID_16_);}
	.st17{fill:url(#SVGID_17_);}
	.st18{fill:url(#SVGID_18_);}
	.st19{fill:url(#SVGID_19_);}
	.st20{fill:url(#SVGID_20_);}
	.st21{fill:url(#SVGID_21_);}
	.st22{fill:url(#SVGID_22_);}
	.st23{fill:url(#SVGID_23_);}
	.st24{fill:#141414;}
	.st25{fill:url(#SVGID_24_);}
	.st26{fill:url(#SVGID_25_);}
	.st27{fill:url(#SVGID_26_);}
	.st28{fill:url(#SVGID_27_);}
	.st29{fill:url(#SVGID_28_);}
	.st30{fill:url(#SVGID_29_);}
	.st31{opacity:0.3;}
	.st32{fill:none;stroke:#FFFFFF;stroke-miterlimit:10;}
	.st33{fill:none;stroke:#FFFFFF;stroke-width:0.3;stroke-miterlimit:10;}
	.st34{fill:none;stroke:#FFFFFF;stroke-width:0.6;stroke-miterlimit:10;}
	.st35{fill:none;stroke:#FFFFFF;stroke-width:1.5;stroke-miterlimit:10;}
</style>
<g id="Layer_3_12_">
</g>
<g id="Layer_2_1_">
	<g>
		
			<linearGradient id="SVGID_1_" gradientUnits="userSpaceOnUse" x1="1000" y1="-9319.1055" x2="1000" y2="-10519.1055" gradientTransform="matrix(1 0 0 -1 0 -9319.1055)">
			<stop  offset="0" style="stop-color:#F2DF4C"/>
			<stop  offset="1" style="stop-color:#F2852D"/>
		</linearGradient>
		<polygon class="st0" points="2000,0 2000,1200 0,1200 0,1200 2000,1200 2000,0 		"/>
		
			<linearGradient id="SVGID_2_" gradientUnits="userSpaceOnUse" x1="1453.1608" y1="-9319.1055" x2="1453.1608" y2="-10519.1055" gradientTransform="matrix(1 0 0 -1 0 -9319.1055)">
			<stop  offset="0" style="stop-color:#F2DF4C"/>
			<stop  offset="1" style="stop-color:#F2852D"/>
		</linearGradient>
		<path style="fill:url(#SVGID_2_);" d="M1717.3,504.4c11.5-17.9,17.7-38.6,17.7-60.4c0-29.9-11.7-58.1-32.8-79.2
			c-21.2-21.2-49.3-32.8-79.2-32.8c-21.8,0-42.5,6.2-60.4,17.7c-11-50.3-55.9-88-109.4-88c-53.5,0-98.4,37.8-109.4,88
			c-17.9-11.5-38.6-17.7-60.4-17.7c-29.9,0-58.1,11.7-79.2,32.8c-21.2,21.2-32.8,49.3-32.8,79.2c0,21.8,6.2,42.5,17.7,60.4
			c-50.3,11-88,55.9-88,109.4c0,53.5,37.8,98.4,88,109.4c-11.5,17.9-17.7,38.6-17.7,60.4c0,29.9,11.7,58.1,32.8,79.2
			c21.2,21.2,49.3,32.8,79.2,32.8c21.8,0,42.5-6.2,60.4-17.7c11,50.3,55.9,88,109.4,88c53.5,0,98.4-37.8,109.4-88
			c17.9,11.5,38.6,17.7,60.4,17.7c29.9,0,58.1-11.7,79.2-32.8c21.2-21.2,32.8-49.3,32.8-79.2c0-21.8-6.2-42.5-17.7-60.4
			c50.3-11,88-55.9,88-109.4C1805.3,560.2,1767.6,515.4,1717.3,504.4z M1565.2,477.7v-89.2l1.1-1.1c15.1-15.1,35.2-23.4,56.6-23.4
			c21.4,0,41.5,8.3,56.6,23.4s23.4,35.2,23.4,56.6c0,21.4-8.3,41.5-23.4,56.6l-1.1,1.1h-89.2c-9.5,0-18.7,1.3-27.6,3.6
			C1563.9,496.5,1565.2,487.2,1565.2,477.7z M1356.9,630c12.8,0,25.1,3,36.2,8.7c-10.5,32-40.6,55.2-76,55.2h-57.2l40.4-40.4
			C1315.5,638.3,1335.6,630,1356.9,630z M1259.9,533.7h57.2c35.5,0,65.6,23.2,76,55.2c-11.1,5.6-23.4,8.7-36.2,8.7
			c-21.4,0-41.5-8.3-56.6-23.4L1259.9,533.7z M1373.1,749.8c0-35.5,23.2-65.6,55.2-76c5.6,11.1,8.7,23.4,8.7,36.2
			c0,21.4-8.3,41.5-23.4,56.6l-40.4,40.4V749.8z M1421.1,613.8c0-17.7,14.3-32,32-32c17.7,0,32,14.3,32,32c0,17.7-14.3,32-32,32
			C1435.5,645.8,1421.1,631.5,1421.1,613.8z M1478,553.8c-5.6-11.1-8.7-23.4-8.7-36.2c0-21.4,8.3-41.5,23.4-56.6l40.4-40.4v57.2
			C1533.2,513.2,1510,543.3,1478,553.8z M1549.4,597.6c-12.8,0-25.1-3-36.2-8.7c10.5-32,40.6-55.2,76-55.2h57.2l-40.4,40.4
			C1590.8,589.3,1570.8,597.6,1549.4,597.6z M1646.4,693.8h-57.2c-35.5,0-65.6-23.2-76-55.2c11.1-5.6,23.4-8.7,36.2-8.7
			c21.4,0,41.5,8.3,56.6,23.4L1646.4,693.8z M1373.1,373.7c0-44.1,35.9-80,80-80c44.1,0,80,35.9,80,80v1.6l-63.1,63.1
			c-6.7,6.7-12.3,14.1-17,22c-4.7-7.9-10.3-15.3-17-22l-63.1-63.1V373.7z M1373.1,420.6l40.4,40.4c15.1,15.1,23.4,35.2,23.4,56.6
			c0,12.8-3,25.1-8.7,36.2c-32-10.5-55.2-40.6-55.2-76V420.6z M1226.8,387.4c15.1-15.1,35.2-23.4,56.6-23.4s41.5,8.3,56.6,23.4
			l1.1,1.1v89.2c0,9.5,1.3,18.7,3.6,27.6c-8.8-2.2-18.1-3.6-27.6-3.6h-89.2l-1.1-1.1c-15.1-15.1-23.4-35.2-23.4-56.6
			C1203.3,422.6,1211.7,402.5,1226.8,387.4z M1133,613.8c0-44.1,35.9-80,80-80h1.6l63.1,63.1c6.7,6.7,14.1,12.3,22,17
			c-7.9,4.7-15.3,10.3-22,17l-63.1,63.1h-1.6C1168.9,693.8,1133,657.9,1133,613.8z M1341.1,749.8V839l-1.1,1.1
			c-15.1,15.1-35.2,23.4-56.6,23.4s-41.5-8.3-56.6-23.4c-15.1-15.1-23.4-35.2-23.4-56.6s8.3-41.5,23.4-56.6l1.1-1.1h89.2
			c9.5,0,18.7-1.3,27.6-3.6C1342.4,731.1,1341.1,740.3,1341.1,749.8z M1533.2,853.9c0,44.1-35.9,80-80,80c-44.1,0-80-35.9-80-80
			v-1.6l63.1-63.1c6.7-6.7,12.3-14.1,17-22c4.7,7.9,10.3,15.3,17,22l63.1,63.1V853.9z M1533.2,807l-40.4-40.4
			c-15.1-15.1-23.4-35.2-23.4-56.6c0-12.8,3-25.1,8.7-36.2c32,10.5,55.2,40.6,55.2,76V807z M1679.5,840.2
			c-15.1,15.1-35.2,23.4-56.6,23.4c-21.4,0-41.5-8.3-56.6-23.4l-1.1-1.1v-89.2c0-9.5-1.3-18.7-3.6-27.6c8.8,2.2,18.1,3.6,27.6,3.6
			h89.2l1.1,1.1c15.1,15.1,23.4,35.2,23.4,56.6S1694.7,825,1679.5,840.2z M1693.3,693.8h-1.6l-63.1-63.1c-6.7-6.7-14.1-12.3-22-17
			c7.9-4.7,15.3-10.3,22-17l63.1-63.1h1.6c44.1,0,80,35.9,80,80C1773.3,657.9,1737.4,693.8,1693.3,693.8z"/>
		<path class="st3" d="M1428.3,553.7c5.6-11.1,8.7-23.4,8.7-36.2c0-21.4-8.3-41.5-23.4-56.6l-40.4-40.4v57.2
			C1373.1,513.2,1396.3,543.3,1428.3,553.7z"/>
		<circle class="st3" cx="1453.2" cy="613.8" r="32"/>
		<path class="st3" d="M1533.2,477.7v-57.2l-40.4,40.4c-15.1,15.1-23.4,35.2-23.4,56.6c0,12.8,3,25.1,8.7,36.2
			C1510,543.3,1533.2,513.2,1533.2,477.7z"/>
		<path class="st3" d="M1453.2,460.3c4.7-7.9,10.3-15.3,17-22l63.1-63.1v-1.6c0-44.1-35.9-80-80-80c-44.1,0-80,35.9-80,80v1.6
			l63.1,63.1C1442.8,445,1448.4,452.4,1453.2,460.3z"/>
		<path class="st3" d="M1589.2,533.7c-35.5,0-65.6,23.2-76,55.2c11.1,5.6,23.4,8.7,36.2,8.7c21.4,0,41.5-8.3,56.6-23.4l40.4-40.4
			H1589.2z"/>
		<path class="st3" d="M1317.1,693.8c35.5,0,65.6-23.2,76-55.2c-11.1-5.6-23.4-8.7-36.2-8.7c-21.4,0-41.5,8.3-56.6,23.4l-40.4,40.4
			H1317.1z"/>
		<path class="st3" d="M1437,710c0-12.8-3-25.1-8.7-36.2c-32,10.5-55.2,40.6-55.2,76V807l40.4-40.4
			C1428.7,751.5,1437,731.4,1437,710z"/>
		<path class="st3" d="M1678.4,501.7l1.1-1.1c15.1-15.1,23.4-35.2,23.4-56.6c0-21.4-8.3-41.5-23.4-56.6s-35.2-23.4-56.6-23.4
			c-21.4,0-41.5,8.3-56.6,23.4l-1.1,1.1v89.2c0,9.5-1.3,18.7-3.6,27.6c8.8-2.2,18.1-3.6,27.6-3.6H1678.4z"/>
		<path class="st3" d="M1393.1,588.9c-10.5-32-40.6-55.2-76-55.2h-57.2l40.4,40.4c15.1,15.1,35.2,23.4,56.6,23.4
			C1369.7,597.6,1382.1,594.6,1393.1,588.9z"/>
		<path class="st3" d="M1513.2,638.6c10.5,32,40.6,55.2,76,55.2h57.2l-40.4-40.4c-15.1-15.1-35.2-23.4-56.6-23.4
			C1536.6,629.9,1524.3,633,1513.2,638.6z"/>
		<polygon class="st3" points="2000,0 2000,0 0,0 0,1200 0,1200 0,0 		"/>
		<path class="st3" d="M2000,0H0v1200h2000V0z M1717.3,723.2c11.5,17.9,17.7,38.6,17.7,60.4c0,29.9-11.7,58.1-32.8,79.2
			c-21.2,21.2-49.3,32.8-79.2,32.8c-21.8,0-42.5-6.2-60.4-17.7c-11,50.3-55.9,88-109.4,88c-53.5,0-98.4-37.8-109.4-88
			c-17.9,11.5-38.6,17.7-60.4,17.7c-29.9,0-58.1-11.7-79.2-32.8c-21.2-21.2-32.8-49.3-32.8-79.2c0-21.8,6.2-42.5,17.7-60.4
			c-50.3-11-88-55.9-88-109.4c0-53.5,37.8-98.4,88-109.4c-11.5-17.9-17.7-38.6-17.7-60.4c0-29.9,11.7-58.1,32.8-79.2
			c21.2-21.2,49.3-32.8,79.2-32.8c21.8,0,42.5,6.2,60.4,17.7c11-50.3,55.9-88,109.4-88c53.5,0,98.4,37.8,109.4,88
			c17.9-11.5,38.6-17.7,60.4-17.7c29.9,0,58.1,11.7,79.2,32.8c21.2,21.2,32.8,49.3,32.8,79.2c0,21.8-6.2,42.5-17.7,60.4
			c50.3,11,88,55.9,88,109.4C1805.3,667.3,1767.6,712.1,1717.3,723.2z"/>
		<path class="st3" d="M1693.3,533.7h-1.6l-63.1,63.1c-6.7,6.7-14.1,12.3-22,17c7.9,4.7,15.3,10.3,22,17l63.1,63.1h1.6
			c44.1,0,80-35.9,80-80C1773.3,569.6,1737.4,533.7,1693.3,533.7z"/>
		<path class="st3" d="M1678.4,725.8h-89.2c-9.5,0-18.7-1.3-27.6-3.6c2.2,8.8,3.6,18.1,3.6,27.6V839l1.1,1.1
			c15.1,15.1,35.2,23.4,56.6,23.4c21.4,0,41.5-8.3,56.6-23.4c15.1-15.1,23.4-35.2,23.4-56.6s-8.3-41.5-23.4-56.6L1678.4,725.8z"/>
		<path class="st3" d="M1227.9,501.7h89.2c9.5,0,18.7,1.3,27.6,3.6c-2.2-8.8-3.6-18.1-3.6-27.6v-89.2l-1.1-1.1
			c-15.1-15.1-35.2-23.4-56.6-23.4s-41.5,8.3-56.6,23.4c-15.1,15.1-23.4,35.2-23.4,56.6c0,21.4,8.3,41.5,23.4,56.6L1227.9,501.7z"/>
		<path class="st3" d="M1478,673.8c-5.6,11.1-8.7,23.4-8.7,36.2c0,21.4,8.3,41.5,23.4,56.6l40.4,40.4v-57.2
			C1533.2,714.4,1510,684.3,1478,673.8z"/>
		<path class="st3" d="M1214.7,693.8l63.1-63.1c6.7-6.7,14.1-12.3,22-17c-7.9-4.7-15.3-10.3-22-17l-63.1-63.1h-1.6
			c-44.1,0-80,35.9-80,80c0,44.1,35.9,80,80,80H1214.7z"/>
		<path class="st3" d="M1227.9,725.8l-1.1,1.1c-15.1,15.1-23.4,35.2-23.4,56.6s8.3,41.5,23.4,56.6c15.1,15.1,35.2,23.4,56.6,23.4
			s41.5-8.3,56.6-23.4l1.1-1.1v-89.2c0-9.5,1.3-18.7,3.6-27.6c-8.8,2.2-18.1,3.6-27.6,3.6H1227.9z"/>
		<path class="st3" d="M1453.2,767.2c-4.7,7.9-10.3,15.3-17,22l-63.1,63.1v1.6c0,44.1,35.9,80,80,80c44.1,0,80-35.9,80-80v-1.6
			l-63.1-63.1C1463.5,782.5,1457.9,775.1,1453.2,767.2z"/>
	</g>
</g>
<g id="Layer_1">
</g>
</svg>
