<?xml version="1.0" encoding="utf-8"?>
<!-- Generator: Adobe Illustrator 19.0.0, SVG Export Plug-In . SVG Version: 6.00 Build 0)  -->
<svg version="1.1" id="图层_1" xmlns="http://www.w3.org/2000/svg" xmlns:xlink="http://www.w3.org/1999/xlink" x="0px" y="0px"
	 viewBox="574 -174.6 2000 1200" style="enable-background:new 574 -174.6 2000 1200;" xml:space="preserve">
<style type="text/css">
	.st0{fill:#0A0A0A;}
	.st1{clip-path:url(#SVGID_2_);fill:url(#SVGID_3_);}
</style>
<g id="Layer_3_12_">
</g>
<rect x="2574" y="-174.6" class="st0" width="0.8" height="73.9"/>
<rect x="574" y="-174.6" class="st0" width="2000" height="1200"/>
<g>
	<g>
		<defs>
			<path id="SVGID_1_" d="M1915.3,816.7c-52.8,13-105.7-32.9-121.1-84.7c-10.1-34.4-4.8-78.3,26.2-96.3
				c32.9-19.1,81.8,9.4,81.4,47.4c-0.4,38.1-49.9,65.5-82.3,45.6c4.3,24.2,14.9,49,35.8,61.8c30.5,18.7,72.4,4.2,95.9-22.5
				c23.6-26.7,33.2-62.8,42.2-97.4c4.2-16.1,4.4-39.2-12-42.9c-79-17.5-166.1-44.9-204-116.3c-31.4-59.1-17.8-135.3,22.3-188.7
				c40.2-53.4,102.9-86.4,167.4-103.3c28.9-7.5,35.4-44.2,42.4-73.2c16.8-66.6,63.4-121.8,126.2-149.6
				c39.6-17.2,86.5,19.7,93.1,62.3c6.5,42.6-15.9,84.6-43.5,117.6c-41,48.6-94.2,85.3-154.1,106.4c-13.8,4.9-12.1,27-0.6,35.9
				c11.5,8.9,27.2,10,41.5,13.4c57.7,13.5,97.3,75.6,92.8,134.8s-45.4,112-98.2,139.1c-17.3,8.9-37.3,16.7-46.2,34
				c-4.2,9.9-6.7,20.4-7.3,31.2c-3.7,26.7-11.7,52.6-23.8,76.7c-15.6,31.1-40.3,60.3-74.2,68.6 M1889.3,461.4
				c-3.8-53.3,40.2-99.8,89-121.1c11.1-4.8,24.9-12.3,23.3-24.3c-2.6-9.3-12-15.1-21.5-13.1c-9.1,2.2-17.6,6.5-24.7,12.6
				c-28.6,20.4-60.2,36.5-86.8,59.7c-26.7,23.2-48.5,54.7-48.6,89.9c-0.3,47.2,37.7,85.6,76.8,112c14.3,10.5,30.3,18.4,47.4,23.3
				c17.3,4.9,35.8,2.4,51.2-6.8c9.9-6.3,10.5-19.8,10.5-31.4l0.4-137.6c1-12.6-1.2-25.3-6.2-36.9c-48.6,33.2-71.4,93.2-57.1,150.3
				c-30-14.1-50.3-43.1-53.1-76.2 M2164.9,13.5c-3.9,1.2-7.3,3.5-9.9,6.6c-47.4,48.9-95.9,99.8-119.9,163c-1.5,2.9-1.9,6.2-1.3,9.3
				c2.3,6.9,12.1,6.5,19.1,4.7s16.9-4.3,25.3-6.6c26.8-6.5,52.3-17.4,75.4-32.4c23.3-15.2,40.3-38.4,47.8-65.2
				c7.2-27.3-1.5-56.2-22.4-75.1c-3.8-3.8-9.1-5.7-14.4-5.2 M2027.7,573.5c2.3,3.6,7.7,0.6,10.5-2.6c26.3-29.2,45.8-63.9,57.3-101.5
				c6.9-23,10.6-48.4,0.9-70.2c-9.7-21.8-37.6-36.6-58.8-25.5c-3.1,1.4-5.7,3.8-7.3,6.8c-0.8,2.4-1.2,5-1.1,7.5L2027.7,573.5
				 M1830.4,545.1c2.3,7.6,8.2,13.6,15.7,16.2c-0.1-8-5.9-14.8-13.9-16L1830.4,545.1L1830.4,545.1z"/>
		</defs>
		<clipPath id="SVGID_2_">
			<use xlink:href="#SVGID_1_"  style="overflow:visible;"/>
		</clipPath>
		
			<linearGradient id="SVGID_3_" gradientUnits="userSpaceOnUse" x1="1574" y1="-174.22" x2="1574" y2="1025.78" gradientTransform="matrix(1 0 0 -1 0 851.17)">
			<stop  offset="0" style="stop-color:#EB5757"/>
			<stop  offset="1" style="stop-color:#F2994A"/>
		</linearGradient>
		<rect x="574" y="-174.6" class="st1" width="2000" height="1200"/>
	</g>
</g>
</svg>
